<svg width="212" height="212" viewBox="0 0 212 212" fill="none" xmlns="http://www.w3.org/2000/svg">
<path d="M105.631 0C47.3956 0 0 47.437 0 105.772C0 123.987 4.73958 141.982 13.6701 157.801C14.2406 158.812 15.5352 159.163 16.5446 158.592C17.5539 158.021 17.927 156.725 17.3345 155.714C8.75504 140.531 4.21297 123.262 4.21297 105.772C4.21297 49.788 49.6995 4.24053 105.609 4.24053C161.518 4.24053 207.005 49.788 207.005 105.772C207.005 123.262 202.463 140.531 193.883 155.714C193.313 156.725 193.664 158.021 194.673 158.592C195.002 158.768 195.353 158.878 195.704 158.878C196.45 158.878 197.152 158.482 197.547 157.801C206.5 141.982 211.218 123.987 211.218 105.772C211.218 47.459 163.844 0 105.587 0" fill="#00ABAD"/>
<path d="M174.29 180.476C155.529 197.768 131.151 207.304 105.654 207.304C80.1568 207.304 55.7788 197.768 37.0181 180.476C36.1623 179.685 34.8238 179.751 34.0339 180.608C33.244 181.465 33.2879 182.805 34.1656 183.596C53.7162 201.613 79.1036 211.544 105.676 211.544C132.248 211.544 157.635 201.613 177.186 183.596C178.042 182.805 178.108 181.465 177.318 180.608C176.528 179.751 175.189 179.685 174.334 180.476" fill="#00ABAD"/>
<path d="M133.937 97.7963H132.708V74.9238C132.708 73.7593 131.764 72.8145 130.601 72.8145H80.6823C79.5194 72.8145 78.5759 73.7593 78.5759 74.9238V97.7963H77.2813C76.1183 97.7963 75.1748 98.7412 75.1748 99.9057C75.1748 101.07 76.1183 102.015 77.2813 102.015H133.958C135.121 102.015 136.065 101.07 136.065 99.9057C136.065 98.7412 135.121 97.7963 133.958 97.7963M128.517 97.7963H82.8107V77.0331H128.517V97.7963V97.7963Z" fill="#00ABAD"/>
<path d="M189.582 170.369H186.576V87.8869C186.576 86.7224 185.632 85.7776 184.469 85.7776H145.28V70.8588L148.111 72.5286C148.44 72.7263 148.813 72.8142 149.186 72.8142C149.91 72.8142 150.612 72.4407 151.007 71.7816C151.6 70.7709 151.271 69.4746 150.261 68.8813L107.759 43.6797V37.8352L128.429 28.6291C129.262 28.2555 129.767 27.3766 129.679 26.4758C129.592 25.553 128.911 24.8279 128.012 24.6302L106.069 20.126C105.455 19.9942 104.797 20.1479 104.314 20.5654C103.809 20.9609 103.546 21.5761 103.546 22.2133V44.0972L61.7237 68.9033C60.7143 69.4965 60.3852 70.7929 60.9776 71.8036C61.3726 72.4627 62.0748 72.8362 62.7989 72.8362C63.1719 72.8362 63.5229 72.7483 63.874 72.5506L66.0244 71.2763V85.7776H26.8353C25.6723 85.7776 24.7288 86.7224 24.7288 87.8869V170.369H21.7227C20.5597 170.369 19.6162 171.314 19.6162 172.478C19.6162 173.643 20.5597 174.587 21.7227 174.587H68.1528C69.3158 174.587 70.2593 173.643 70.2593 172.478V117.878H141.067V171.973C141.067 171.973 141.067 172.149 141.089 172.215C141.089 172.302 141.067 172.39 141.067 172.456C141.067 173.621 142.011 174.565 143.174 174.565H189.604C190.767 174.565 191.71 173.621 191.71 172.456C191.71 171.292 190.767 170.347 189.604 170.347M107.781 24.762L120.727 27.4206L107.781 33.1772V24.762ZM48.3827 170.347H38.2672V130.49H48.3827V170.347ZM56.2161 99.9055V170.347H52.6176V128.381C52.6176 127.216 51.6741 126.272 50.5111 126.272H36.1608C34.9979 126.272 34.0543 127.216 34.0543 128.381V170.347H28.9637V89.9742H66.0463V97.7742H58.3446C57.1816 97.7742 56.2381 98.719 56.2381 99.8835M150.92 170.325H145.324V115.725C145.324 114.561 144.381 113.616 143.218 113.616H68.1747C67.0118 113.616 66.0683 114.561 66.0683 115.725V170.325H60.473V101.993H66.0683V107.596C66.0683 108.76 67.0118 109.705 68.1747 109.705C69.3377 109.705 70.2812 108.76 70.2812 107.596V69.3867C70.2812 69.1669 70.2373 68.9473 70.1715 68.7495L106.025 47.4808L141.199 68.332C141.133 68.5298 141.089 68.7275 141.089 68.9473V107.574C141.089 108.738 142.033 109.683 143.196 109.683C144.359 109.683 145.302 108.738 145.302 107.574V101.971H150.898V170.303L150.92 170.325ZM173.827 170.325H163.712V130.468H173.827V170.325ZM182.407 170.325H178.062V128.359C178.062 127.194 177.119 126.25 175.956 126.25H161.605C160.443 126.25 159.499 127.194 159.499 128.359V170.325H155.154V99.8835C155.154 98.719 154.211 97.7742 153.048 97.7742H145.346V89.9742H182.429V170.347L182.407 170.325Z" fill="#00ABAD"/>
<path d="M161.54 123.262H175.89C177.053 123.262 177.997 122.317 177.997 121.152V99.9496C177.997 98.7851 177.053 97.8403 175.89 97.8403H161.54C160.377 97.8403 159.434 98.7851 159.434 99.9496V121.152C159.434 122.317 160.377 123.262 161.54 123.262ZM163.647 102.059H173.762V119.043H163.647V102.059Z" fill="#00ABAD"/>
<path d="M50.4666 97.7964H36.1163C34.9533 97.7964 34.0098 98.7412 34.0098 99.9057V121.108C34.0098 122.273 34.9533 123.218 36.1163 123.218H50.4666C51.6295 123.218 52.573 122.273 52.573 121.108V99.9057C52.573 98.7412 51.6295 97.7964 50.4666 97.7964ZM48.3601 118.999H38.2447V102.015H48.3601V118.999Z" fill="#00ABAD"/>
<path d="M114.714 144.684C115.767 143.146 116.843 141.564 117.347 139.323C117.742 137.631 117.984 135.676 116.996 134.094C116.426 133.193 115.526 132.599 114.407 132.358C111.357 131.699 109.931 134.357 109.25 135.654L109.185 135.785C107.758 138.466 105.893 140.048 103.633 140.465C100.912 140.993 97.5113 141.652 96.4361 145.826C95.69 148.705 96.3044 151.737 98.3012 155.121C99.0911 156.439 100.122 157.428 101.11 158.394C102.075 159.317 102.975 160.196 103.436 161.185C104.094 162.657 103.787 164.349 103.436 166.326L103.348 166.853C102.887 169.38 102.273 171.489 101.417 173.489C100.43 175.818 99.1569 177.971 97.8184 180.256C97.204 181.289 96.5897 182.322 96.0192 183.376C95.2951 184.673 95.1195 186.233 95.5364 187.661C95.9314 189.023 96.831 190.144 98.0818 190.803C98.9595 191.264 99.881 191.506 100.781 191.506C102.602 191.506 104.335 190.583 105.389 188.913C105.937 188.034 106.486 187.155 106.99 186.32C107.034 187.265 107.32 188.21 107.824 189.023C108.548 190.209 109.711 191.022 111.05 191.352C113.99 192.033 116.821 190.407 117.632 187.573C119.19 182.146 120.639 176.257 120.726 169.929C120.77 166.897 120.287 163.865 119.805 161.317C119.322 158.746 118.444 156.241 116.93 153.165C116.272 151.825 115.504 150.638 114.692 149.43C114.473 149.122 114.231 148.815 113.99 148.507C113.639 148.068 113.31 147.65 113.288 147.386C113.266 147.079 113.727 146.31 113.924 146.024C114.209 145.563 114.517 145.123 114.802 144.706M113.31 138.422C112.981 139.85 112.213 141.015 111.313 142.333C110.984 142.794 110.655 143.278 110.348 143.783C109.843 144.574 108.921 146.046 109.097 147.782C109.228 149.32 110.106 150.397 110.721 151.166C110.896 151.385 111.05 151.583 111.203 151.803C111.949 152.923 112.608 153.934 113.156 155.033C114.495 157.757 115.263 159.932 115.68 162.108C116.118 164.459 116.557 167.205 116.535 169.864C116.448 175.708 115.087 181.267 113.617 186.386C113.376 187.199 112.652 187.353 112.037 187.221C111.796 187.155 111.598 187.023 111.445 186.782C111.247 186.474 111.203 186.079 111.291 185.705C111.554 184.607 111.84 183.53 112.125 182.431C112.761 179.971 113.419 177.444 113.792 174.829C114.056 172.984 114.056 171.182 114.056 169.446V169.182C114.056 168.106 113.244 167.205 112.169 167.073C111.094 166.941 110.106 167.666 109.865 168.699C109.777 169.051 109.711 169.424 109.623 169.776C109.382 170.874 109.163 171.907 108.812 172.874C107.276 177.158 105.059 181.531 101.834 186.628C101.417 187.265 100.781 187.441 100.078 187.067C99.8371 186.936 99.6836 186.738 99.5958 186.474C99.508 186.145 99.5519 185.749 99.7055 185.442C100.276 184.409 100.868 183.398 101.461 182.409C102.821 180.124 104.204 177.751 105.323 175.159C106.288 172.874 107.012 170.413 107.539 167.622L107.627 167.117C108.066 164.788 108.57 162.152 107.341 159.449C106.552 157.691 105.235 156.439 104.072 155.34C103.238 154.549 102.448 153.802 101.966 152.967C100.583 150.616 100.122 148.639 100.561 146.903C100.934 145.453 101.636 145.167 104.489 144.618C107.978 143.937 110.918 141.564 112.959 137.785L113.025 137.653C113.156 137.411 113.354 137.06 113.507 136.796C113.507 137.104 113.441 137.609 113.266 138.4" fill="#00ABAD"/>
<path d="M90.8186 135.61C90.27 136.071 82.261 142.223 77.0168 146.266C76.2927 146.815 76.0075 147.782 76.3147 148.639L78.3553 154.571C78.6405 155.384 79.3866 155.955 80.2643 155.999H80.3521C81.1859 155.999 81.9538 155.516 82.283 154.747L84.9599 148.705C85.3769 147.76 85.0477 146.661 84.2139 146.09C93.3639 139.059 93.5833 138.839 93.6711 138.752C94.5049 137.939 94.5707 136.576 93.7589 135.719C92.947 134.884 91.6524 134.819 90.8186 135.632" fill="#00ABAD"/>
<path d="M101.374 122.492C97.0728 122.492 93.584 125.986 93.584 130.27C93.584 134.555 97.0728 138.07 101.374 138.07C105.674 138.07 109.141 134.577 109.141 130.27C109.141 125.964 105.652 122.492 101.374 122.492ZM101.374 133.939C99.3548 133.939 97.7311 132.292 97.7311 130.292C97.7311 128.293 99.3768 126.645 101.374 126.645C103.37 126.645 105.016 128.293 105.016 130.292C105.016 132.292 103.37 133.939 101.374 133.939Z" fill="#00ABAD"/>
</svg>
