<svg width="224" height="222" viewBox="0 0 224 222" fill="none" xmlns="http://www.w3.org/2000/svg">
<path d="M187.759 29.8608C187.549 29.4688 187.2 29.146 186.781 28.9385C166.842 10.9758 140.382 0 111.36 0C71.9963 0 35.0548 20.8449 14.9303 54.372C14.3014 55.4327 14.6508 56.7932 15.7223 57.4158C16.7937 58.0384 18.168 57.6925 18.7968 56.6318C38.1294 24.4421 73.5802 4.42724 111.36 4.42724C122.284 4.42724 132.836 6.06438 142.781 9.06199C138.612 13.7659 136.236 19.8073 136.236 26.1253C136.236 40.3985 147.976 51.997 162.37 51.997C173.387 51.997 183.124 45.1025 186.874 35.1181C206.672 54.4643 218.994 81.3044 218.994 110.958C218.994 116.423 218.574 121.795 217.759 127.053C209.63 120.043 198.38 116.077 186.268 116.077C184.917 116.077 183.589 116.146 182.285 116.238V95.301L202.573 86.3773C203.458 85.9853 203.993 85.0629 203.9 84.1175C203.807 83.1491 203.085 82.3651 202.13 82.1806L180.515 77.7995C179.863 77.6612 179.164 77.8226 178.652 78.2607C178.139 78.6758 177.836 79.3214 177.836 79.9901V116.792C165.352 118.775 154.637 125.07 148.511 134.132L134.489 92.5109C134.187 91.6116 133.325 90.989 132.37 90.989H130.064C128.829 90.989 127.828 91.9805 127.828 93.2026V133.232L111.104 116.676V115.293C111.104 102.91 100.925 92.8337 88.3941 92.8337H79.1936V85.87C79.1936 80.5896 74.8613 76.3007 69.5274 76.3007V80.751C72.3923 80.751 74.6982 83.0569 74.6982 85.87V92.8337H57.6716L52.3377 75.2631C51.5225 71.1586 47.3065 63.6416 36.8017 63.6416H11.8557C10.6213 63.6416 9.61969 64.6331 9.61969 65.8552C9.61969 67.0773 10.6213 68.0688 11.8557 68.0688H36.8017C46.2584 68.0688 47.8656 75.8396 47.9354 76.1624L55.5753 101.342L56.4604 103.902H24.55L18.9832 98.3908H2.23605C1.00156 98.3908 0 99.3824 0 100.604C0 101.827 1.00156 102.818 2.23605 102.818H17.1431L22.7099 108.329H62.7493L59.8611 99.9588L59.0225 97.2149H88.3708C98.4097 97.2149 106.585 105.308 106.585 115.247V118.406H2.60872C1.37423 118.406 0.372667 119.397 0.372667 120.619C0.372667 121.841 1.37423 122.833 2.60872 122.833H111.011L127.805 139.458V146.537H121.725C121.213 141.764 119.093 137.291 115.576 133.809C111.523 129.82 106.166 127.606 100.483 127.606H3.79663C2.56214 127.606 1.56058 128.598 1.56058 129.82C1.56058 131.042 2.56214 132.033 3.79663 132.033H100.483C104.955 132.033 109.194 133.786 112.408 136.922C115.599 140.104 117.37 144.3 117.37 148.728C117.37 157.928 109.8 165.422 100.506 165.422H18.3077C17.0732 165.422 16.0716 166.414 16.0716 167.636C16.0716 168.858 17.0732 169.849 18.3077 169.849H100.506C111.523 169.849 120.631 161.548 121.749 150.941H127.805V163.854C127.805 165.076 128.806 166.068 130.041 166.068H203.434C201.827 168.696 200.104 171.21 198.264 173.677C198.147 173.677 198.007 173.631 197.868 173.631H23.2457C22.0112 173.631 21.0096 174.622 21.0096 175.844C21.0096 177.067 22.0112 178.058 23.2457 178.058H194.816C175.065 202.062 144.994 217.396 111.36 217.396C80.9638 217.396 51.8252 204.575 31.4445 182.209C30.606 181.286 29.1852 181.217 28.2768 182.047C27.3451 182.877 27.2752 184.284 28.1137 185.183C49.3563 208.472 79.6828 221.846 111.36 221.846C173.178 221.846 223.489 172.063 223.489 110.842C223.489 78.8372 209.723 49.9679 187.759 29.6994M162.394 47.4315C150.445 47.4315 140.732 37.816 140.732 25.987C140.732 20.084 143.201 14.5038 147.486 10.4686C160.81 15.1956 172.945 22.4359 183.263 31.6133C180.725 40.8367 172.176 47.4084 162.394 47.4084M182.308 82.5266L194.374 84.9708L182.308 90.2742V82.5035V82.5266ZM132.277 161.548V99.8205L153.077 161.548H132.277ZM205.997 161.548H157.782L150.351 139.527C155.056 130.165 165.538 123.317 177.813 121.127V129.543C177.813 130.765 178.815 131.757 180.049 131.757C181.284 131.757 182.285 130.765 182.285 129.543V120.55C183.613 120.435 184.917 120.366 186.268 120.366C198.333 120.366 209.444 124.654 216.804 132.125C214.661 142.571 210.958 152.463 205.973 161.548" fill="#00A6D0"/>
<path d="M105.188 148.843C105.188 145.131 102.137 142.087 98.3637 142.087C94.5903 142.087 91.5391 145.108 91.5391 148.843C91.5391 152.579 94.5903 155.599 98.3637 155.599C102.137 155.599 105.188 152.579 105.188 148.843ZM96.0345 148.843C96.0345 147.575 97.0826 146.537 98.3637 146.537C99.6448 146.537 100.693 147.575 100.693 148.843C100.693 150.111 99.6448 151.149 98.3637 151.149C97.0826 151.149 96.0345 150.111 96.0345 148.843Z" fill="#00A6D0"/>
<path d="M111.966 148.843C111.966 141.418 105.864 135.377 98.3634 135.377C90.8633 135.377 84.7607 141.418 84.7607 148.843C84.7607 156.268 90.8633 162.309 98.3634 162.309C105.864 162.309 111.966 156.268 111.966 148.843ZM89.2561 148.843C89.2561 143.862 93.3323 139.827 98.3634 139.827C103.395 139.827 107.471 143.886 107.471 148.843C107.471 153.801 103.395 157.859 98.3634 157.859C93.3323 157.859 89.2561 153.801 89.2561 148.843Z" fill="#00A6D0"/>
<path d="M55.5516 148.843C55.5516 145.131 52.5003 142.087 48.727 142.087C44.9536 142.087 41.9023 145.108 41.9023 148.843C41.9023 152.579 44.9536 155.599 48.727 155.599C52.5003 155.599 55.5516 152.579 55.5516 148.843ZM46.3977 148.843C46.3977 147.575 47.4459 146.537 48.727 146.537C50.008 146.537 51.0562 147.575 51.0562 148.843C51.0562 150.111 50.008 151.149 48.727 151.149C47.4459 151.149 46.3977 150.111 46.3977 148.843Z" fill="#00A6D0"/>
<path d="M62.3284 148.843C62.3284 141.418 56.2258 135.377 48.7257 135.377C41.2256 135.377 35.123 141.418 35.123 148.843C35.123 156.268 41.2256 162.309 48.7257 162.309C56.2258 162.309 62.3284 156.268 62.3284 148.843ZM39.6185 148.843C39.6185 143.862 43.6946 139.827 48.7257 139.827C53.7569 139.827 57.833 143.886 57.833 148.843C57.833 153.801 53.7569 157.859 48.7257 157.859C43.6946 157.859 39.6185 153.801 39.6185 148.843Z" fill="#00A6D0"/>
<path d="M80.499 151.056C81.7334 151.056 82.735 150.065 82.735 148.843C82.735 147.62 81.7334 146.629 80.499 146.629H66.5935C65.359 146.629 64.3574 147.62 64.3574 148.843C64.3574 150.065 65.359 151.056 66.5935 151.056H80.499Z" fill="#00A6D0"/>
<path d="M30.5584 151.056C31.7929 151.056 32.7944 150.065 32.7944 148.843C32.7944 147.62 31.7929 146.629 30.5584 146.629H16.6296C15.3951 146.629 14.3936 147.62 14.3936 148.843C14.3936 150.065 15.3951 151.056 16.6296 151.056H30.5584Z" fill="#00A6D0"/>
<path d="M170.08 132.172C169.195 131.319 167.774 131.342 166.912 132.218C166.051 133.094 166.074 134.501 166.959 135.354L179.071 146.998C179.49 147.413 180.072 147.644 180.655 147.621C181.26 147.621 181.819 147.367 182.239 146.952L192.138 136.876L203.015 147.021C203.458 147.413 203.994 147.621 204.553 147.621C205.158 147.621 205.741 147.39 206.183 146.929C207.022 146.03 206.998 144.623 206.09 143.793L193.582 132.149C192.697 131.319 191.299 131.342 190.437 132.218L180.562 142.271L170.057 132.172H170.08Z" fill="#00A6D0"/>
<path d="M74.7448 114.07H96.3833C97.6178 114.07 98.6194 113.079 98.6194 111.857C98.6194 110.635 97.6178 109.643 96.3833 109.643H74.7448C73.5104 109.643 72.5088 110.635 72.5088 111.857C72.5088 113.079 73.5104 114.07 74.7448 114.07Z" fill="#00A6D0"/>
<path d="M74.7448 107.084H90.3972C91.6317 107.084 92.6333 106.092 92.6333 104.87C92.6333 103.648 91.6317 102.657 90.3972 102.657H74.7448C73.5104 102.657 72.5088 103.648 72.5088 104.87C72.5088 106.092 73.5104 107.084 74.7448 107.084Z" fill="#00A6D0"/>
<path d="M30.3974 91.0355C34.0309 91.0355 36.9891 88.107 36.9891 84.5099C36.9891 80.9128 34.0309 77.9844 30.3974 77.9844C26.7638 77.9844 23.8057 80.9128 23.8057 84.5099C23.8057 88.107 26.7638 91.0355 30.3974 91.0355ZM30.3974 82.4116C31.562 82.4116 32.4937 83.357 32.4937 84.5099C32.4937 85.6628 31.5387 86.6082 30.3974 86.6082C29.256 86.6082 28.2778 85.6628 28.2778 84.5099C28.2778 83.357 29.2327 82.4116 30.3974 82.4116Z" fill="#00A6D0"/>
<path d="M25.7615 100.581H51.7556L45.094 79.2287C44.535 76.4617 41.6934 71.458 34.7523 71.458H12.252V94.5857H19.7055L25.7382 100.558L25.7615 100.581ZM16.7474 75.9083H34.7523C39.6669 75.9083 40.6219 79.713 40.7151 80.1741L45.6763 96.1307H27.6249L21.5921 90.1585H16.7707V75.9083H16.7474Z" fill="#00A6D0"/>
</svg>
