<svg width="213" height="213" viewBox="0 0 213 213" fill="none" xmlns="http://www.w3.org/2000/svg">
<path d="M101.205 141.099C100.586 142.072 99.5693 142.337 98.5305 141.784C98.0443 141.519 97.8453 141.099 97.7569 140.812C97.6022 140.303 97.6685 139.706 97.9337 139.242C98.6189 137.982 99.3482 136.766 100.078 135.529C101.691 132.765 103.393 129.914 104.697 126.819C105.868 124.078 106.73 121.116 107.349 117.778L107.46 117.159C107.99 114.396 108.565 111.279 107.15 108.14C106.222 106.084 104.675 104.603 103.304 103.299C102.288 102.326 101.293 101.375 100.674 100.336C98.9283 97.3964 98.3537 94.8764 98.9284 92.6879C99.4588 90.61 100.674 90.2784 104.012 89.6152C108.123 88.8194 111.571 86.0341 113.98 81.5467L114.068 81.392C114.355 80.8614 114.864 79.9109 115.195 79.7783C115.306 79.7783 115.35 79.8225 115.35 79.8225C115.416 79.9109 115.659 80.4414 115.173 82.5857C114.753 84.3983 113.781 85.8131 112.654 87.4489C112.278 88.0237 111.88 88.5763 111.504 89.1952C110.93 90.1016 109.869 91.8037 110.046 93.7711C110.2 95.4953 111.173 96.689 111.924 97.6396C112.123 97.9048 112.344 98.1701 112.521 98.4353C113.449 99.8059 114.245 101.044 114.93 102.392C116.566 105.73 117.516 108.405 118.024 111.058C118.555 113.909 119.107 117.269 119.063 120.519C118.953 127.659 117.295 134.401 115.483 140.657C115.107 141.939 113.958 142.138 113.074 141.961C112.654 141.851 112.344 141.608 112.101 141.254C111.814 140.79 111.725 140.193 111.858 139.64C112.167 138.292 112.521 136.987 112.875 135.661C113.648 132.721 114.444 129.67 114.864 126.509C115.173 124.299 115.173 122.133 115.173 120.032V119.745C115.173 118.662 114.355 117.734 113.273 117.623C112.19 117.468 111.195 118.198 110.952 119.259C110.863 119.679 110.753 120.121 110.664 120.563C110.377 121.889 110.112 123.171 109.67 124.365C107.791 129.582 105.117 134.887 101.183 141.077M108.454 143.509C109.272 144.835 110.576 145.785 112.079 146.117C115.483 146.891 118.621 145.1 119.572 141.851C121.45 135.33 123.196 128.212 123.307 120.607C123.351 116.96 122.776 113.334 122.202 110.262C121.627 107.211 120.566 104.205 118.732 100.491C117.958 98.8996 117.03 97.4848 116.057 96.0258C115.814 95.65 115.527 95.2964 115.24 94.9427C114.753 94.3458 114.333 93.8153 114.289 93.3732C114.245 92.8427 114.82 91.9584 115.107 91.4721C115.461 90.9195 115.814 90.389 116.168 89.8584C117.428 88.0237 118.71 86.1225 119.306 83.5141C119.748 81.5467 120.058 79.292 118.931 77.5014C118.29 76.5067 117.295 75.8435 116.057 75.5782C112.676 74.8487 111.107 77.7888 110.267 79.3362L110.178 79.4909C108.366 82.851 106.023 84.8404 103.15 85.3931C99.7903 86.0341 96.0109 86.7858 94.7511 91.5827C93.867 94.9427 94.5963 98.5238 96.9391 102.503C97.8674 104.05 99.1052 105.222 100.299 106.371C101.492 107.521 102.619 108.604 103.216 109.886C104.078 111.809 103.68 113.909 103.216 116.363L103.106 117.004C102.531 120.077 101.78 122.663 100.719 125.139C99.503 127.968 97.978 130.599 96.3203 133.362C95.591 134.622 94.8394 135.882 94.1321 137.142C93.3144 138.623 93.0934 140.392 93.6017 142.005C94.0437 143.531 95.0826 144.791 96.4529 145.564C97.4475 146.095 98.5083 146.338 99.525 146.338C101.603 146.338 103.57 145.299 104.763 143.376C105.802 141.74 106.775 140.149 107.659 138.601C107.659 138.601 107.659 138.645 107.659 138.667C107.261 140.325 107.548 142.094 108.432 143.531" fill="#19934A"/>
<path d="M75.1236 95.4084L74.9246 94.8337C75.1677 94.6568 75.3888 94.4799 75.6319 94.3031L75.1236 95.3863V95.4084ZM90.8381 79.6692C90.0645 78.8071 88.7384 78.7408 87.8544 79.4703C87.2355 80.0008 77.5106 87.4725 71.101 92.402C70.3717 92.9547 70.0843 93.9273 70.3716 94.7894L72.8472 101.952C73.1345 102.792 73.886 103.366 74.77 103.411H74.8584C75.7204 103.411 76.4719 102.902 76.8255 102.151L80.0744 94.8337C80.5386 93.7505 80.0744 92.4905 78.9914 92.0042C78.9251 91.982 78.8368 91.9378 78.7705 91.9157C90.374 83.0072 90.6392 82.7419 90.7276 82.6314C91.5675 81.8356 91.5895 80.5313 90.8381 79.6692Z" fill="#19934A"/>
<path d="M100.364 67.7992C103.038 67.7992 105.226 69.9877 105.226 72.6845C105.226 75.3814 103.038 77.5478 100.364 77.5478C97.6896 77.5478 95.5017 75.3593 95.5017 72.6845C95.5017 70.0098 97.6896 67.7992 100.364 67.7992ZM100.364 81.8363C105.403 81.8363 109.514 77.7246 109.514 72.6845C109.514 67.6445 105.403 63.5107 100.364 63.5107C95.3247 63.5107 91.2139 67.6224 91.2139 72.6845C91.2139 77.7467 95.3247 81.8363 100.364 81.8363Z" fill="#19934A"/>
<path d="M192.023 46.643C192.863 46.643 193.548 47.3283 193.548 48.1683C193.548 49.0083 192.863 49.6936 192.023 49.6936C191.183 49.6936 190.498 49.0083 190.498 48.1683C190.498 47.3283 191.183 46.643 192.023 46.643ZM192.023 53.9599C195.228 53.9599 197.836 51.3514 197.836 48.1461C197.836 44.9408 195.228 42.3545 192.023 42.3545C188.818 42.3545 186.21 44.9629 186.21 48.1461C186.21 51.3293 188.818 53.9599 192.023 53.9599Z" fill="#19934A"/>
<path d="M138.51 59.0078C138.51 60.1794 139.461 61.13 140.632 61.13H157.628C158.8 61.13 159.75 60.1794 159.75 59.0078V41.5887C159.75 40.4171 158.8 39.4665 157.628 39.4665C156.457 39.4665 155.507 40.4171 155.507 41.5887V52.9067C142.002 40.5276 124.63 33.7412 106.197 33.7412C86.6812 33.7412 68.3366 41.3455 54.5449 55.1394C53.7051 55.9794 53.7051 57.3278 54.5449 58.1457C54.9649 58.5657 55.5174 58.7646 56.0479 58.7646C56.5783 58.7646 57.1308 58.5657 57.5508 58.1457C70.5467 45.1476 87.8305 37.9854 106.197 37.9854C123.945 37.9854 140.654 44.6834 153.495 56.8415H140.632C139.461 56.8415 138.51 57.792 138.51 58.9636" fill="#19934A"/>
<path d="M176.616 86.6109C176.307 85.4835 175.157 84.7982 174.008 85.1076C172.881 85.4171 172.196 86.5888 172.505 87.7161C182.164 123.748 161.211 160.908 125.649 171.452L132.081 160.311C132.655 159.294 132.324 157.99 131.307 157.393C130.29 156.796 128.986 157.15 128.39 158.167L119.88 172.889C119.284 173.906 119.637 175.21 120.654 175.807L135.75 184.516C136.081 184.715 136.457 184.804 136.811 184.804C137.54 184.804 138.247 184.428 138.645 183.743C139.242 182.726 138.888 181.422 137.872 180.825L128.058 175.166C165.079 163.472 186.739 124.456 176.594 86.5887" fill="#19934A"/>
<path d="M88.1429 177.398C88.3197 177.442 88.5186 177.464 88.6955 177.464C89.6458 177.464 90.5078 176.845 90.7509 175.873C91.0603 174.745 90.3752 173.574 89.248 173.264C53.1997 163.604 31.5398 126.887 40.1595 90.8103L46.5913 101.952C46.9891 102.637 47.6963 103.013 48.4477 103.013C48.8014 103.013 49.1771 102.924 49.5086 102.725C50.5253 102.128 50.879 100.824 50.2822 99.8073L41.7729 85.085C41.4856 84.5987 41.0215 84.245 40.4911 84.0902C39.9385 83.9355 39.3638 84.0239 38.8776 84.3113L23.782 93.0209C22.7653 93.6177 22.4116 94.8999 23.0084 95.9167C23.6051 96.9336 24.9092 97.2873 25.9258 96.6904L35.7391 91.0314C27.3404 128.942 50.3044 167.207 88.165 177.354" fill="#19934A"/>
<path d="M202.299 59.9945C201.791 58.9334 200.509 58.4913 199.448 59.0218C198.387 59.5302 197.945 60.8124 198.453 61.8735C205.239 75.8442 208.665 90.8538 208.665 106.482C208.665 162.852 162.825 208.699 106.465 208.699C50.1051 208.699 4.26566 162.852 4.26566 106.482C4.26566 50.1133 50.1051 4.26636 106.465 4.26636C134.711 4.26636 161.985 16.1371 181.258 36.8058C182.054 37.6679 183.402 37.7121 184.264 36.9163C185.126 36.1205 185.17 34.7721 184.374 33.9099C164.306 12.357 135.905 0 106.465 0C47.7623 0 0 47.7701 0 106.482C0 165.195 47.7623 212.965 106.465 212.965C165.168 212.965 212.93 165.195 212.93 106.482C212.93 90.1907 209.35 74.562 202.277 59.9945" fill="#19934A"/>
</svg>
