<svg width="129" height="43" viewBox="0 0 129 43" fill="none" xmlns="http://www.w3.org/2000/svg">
<path d="M118.727 1.76797e-05H10.2786C9.88325 1.76797e-05 9.49268 1.76798e-05 9.09842 0.00216768C8.76838 0.00431768 8.44098 0.0105634 8.10777 0.0158202C7.3839 0.0243146 6.66173 0.0878197 5.94753 0.205783C5.23434 0.326315 4.54349 0.553552 3.89835 0.879808C3.254 1.20882 2.66523 1.63635 2.15342 2.14687C1.63891 2.65595 1.21004 3.24439 0.883274 3.88954C0.555611 4.53341 0.328408 5.22338 0.209513 5.93561C0.0894873 6.64694 0.0249005 7.36648 0.016332 8.08776C0.00632797 8.41735 0.00527151 8.74804 0 9.07768V33.9255C0.00527151 34.2593 0.00632797 34.5827 0.016332 34.9166C0.0249031 35.6378 0.0894899 36.3573 0.209513 37.0686C0.32808 37.7812 0.555296 38.4716 0.883274 39.1157C1.20989 39.7588 1.63883 40.3448 2.15342 40.8511C2.66329 41.3639 3.25244 41.7917 3.89835 42.1182C4.54349 42.4453 5.23426 42.6739 5.94753 42.7963C6.66185 42.9133 7.38394 42.9769 8.10777 42.9864C8.44098 42.9937 8.76838 42.9979 9.09842 42.9979C9.49267 43 9.88327 43 10.2786 43H118.727C119.115 43 119.508 43 119.896 42.9979C120.224 42.9979 120.561 42.9937 120.89 42.9864C121.612 42.9774 122.333 42.9138 123.046 42.7963C123.761 42.6731 124.454 42.4445 125.103 42.1182C125.748 41.7915 126.337 41.3637 126.846 40.8511C127.359 40.3429 127.789 39.7572 128.12 39.1157C128.445 38.4711 128.67 37.7808 128.787 37.0686C128.908 36.3572 128.974 35.6379 128.987 34.9166C128.992 34.5827 128.992 34.2593 128.992 33.9255C129 33.535 129 33.1466 129 32.7497V10.2514C129 9.85768 129 9.46716 128.992 9.07768C128.992 8.74804 128.992 8.41735 128.987 8.08772C128.974 7.36637 128.908 6.647 128.787 5.93557C128.67 5.22375 128.445 4.53383 128.12 3.8895C127.454 2.59635 126.399 1.54375 125.103 0.879712C124.454 0.554253 123.761 0.327076 123.046 0.205687C122.333 0.0872032 121.612 0.023676 120.89 0.0156697C120.561 0.0104237 120.224 0.00412418 119.896 0.00202793C119.508 -0.00012207 119.115 -0.00012207 118.727 -0.00012207V1.76797e-05Z" fill="#A6A6A6"/>
<path d="M9.10396 42.0592C8.77551 42.0592 8.455 42.055 8.12912 42.0477C7.45405 42.0389 6.78055 41.9803 6.11416 41.8723C5.49278 41.7656 4.89083 41.5671 4.32816 41.2834C3.77066 41.0019 3.26217 40.6329 2.82217 40.1905C2.37581 39.7533 2.00419 39.2462 1.72204 38.6893C1.43679 38.1288 1.23937 37.528 1.13668 36.9078C1.02578 36.2414 0.965774 35.5676 0.957188 34.8922C0.950354 34.6654 0.941406 33.9106 0.941406 33.9106V9.07747C0.941406 9.07747 0.950936 8.3342 0.957242 8.11584C0.965463 7.44147 1.02512 6.76871 1.13569 6.10336C1.23857 5.4815 1.43614 4.87896 1.72155 4.31661C2.00266 3.76009 2.37221 3.2526 2.81589 2.81381C3.25906 2.37085 3.76918 1.99995 4.32763 1.71466C4.889 1.43181 5.48982 1.23469 6.10994 1.12992C6.77852 1.02088 7.45436 0.961925 8.13177 0.953555L9.10449 0.94043H119.891L120.875 0.954082C121.546 0.962036 122.216 1.02046 122.879 1.12887C123.505 1.23495 124.112 1.43344 124.68 1.71781C125.799 2.29276 126.709 3.20241 127.283 4.31923C127.564 4.8777 127.759 5.47532 127.86 6.09182C127.972 6.76262 128.035 7.44067 128.048 8.12057C128.051 8.42501 128.051 8.75202 128.051 9.07747C128.059 9.4806 128.059 9.8643 128.059 10.2511V32.7495C128.059 33.14 128.059 33.5211 128.051 33.9053C128.051 34.2549 128.051 34.5751 128.046 34.9047C128.034 35.5725 127.972 36.2384 127.862 36.8972C127.762 37.5219 127.565 38.1274 127.28 38.6925C126.996 39.2433 126.626 39.7461 126.185 40.1821C125.745 40.6269 125.235 40.9981 124.677 41.2813C124.11 41.5673 123.504 41.7665 122.879 41.8723C122.212 41.9809 121.539 42.0395 120.864 42.0477C120.548 42.055 120.217 42.0592 119.896 42.0592L118.728 42.0613L9.10396 42.0592Z" fill="black"/>
<path d="M26.7018 21.823C26.7134 20.9257 26.9524 20.046 27.3965 19.2656C27.8407 18.4852 28.4756 17.8295 29.2422 17.3595C28.7552 16.666 28.1128 16.0952 27.3659 15.6926C26.619 15.2899 25.7883 15.0665 24.9396 15.04C23.1294 14.8506 21.3744 16.1202 20.452 16.1202C19.5116 16.1202 18.0913 15.0588 16.5619 15.0902C15.5727 15.1221 14.6085 15.409 13.7635 15.9229C12.9185 16.4368 12.2213 17.1602 11.74 18.0227C9.65516 21.6222 11.2103 26.9124 13.2074 29.822C14.2067 31.2467 15.3745 32.8382 16.9025 32.7818C18.3978 32.7199 18.9562 31.8309 20.7611 31.8309C22.5493 31.8309 23.0733 32.7818 24.6323 32.7459C26.2368 32.7199 27.2477 31.3148 28.2119 29.8766C28.9298 28.8614 29.4823 27.7394 29.8488 26.5521C28.9166 26.1589 28.1211 25.5009 27.5615 24.6599C27.0019 23.8189 26.7029 22.8323 26.7018 21.823Z" fill="white"/>
<path d="M23.7577 13.1264C24.6325 12.0792 25.0635 10.7331 24.9591 9.37402C23.6226 9.51401 22.388 10.151 21.5013 11.1581C21.0678 11.6501 20.7358 12.2225 20.5242 12.8425C20.3126 13.4625 20.2257 14.118 20.2684 14.7716C20.9369 14.7785 21.5983 14.634 22.2027 14.349C22.8071 14.064 23.3387 13.646 23.7577 13.1264Z" fill="white"/>
<path d="M45.6027 29.1746H40.5L39.2746 32.7828H37.1133L41.9465 19.4335H44.192L49.0252 32.7828H46.827L45.6027 29.1746ZM41.0285 27.5096H45.0732L43.0793 21.6538H43.0235L41.0285 27.5096Z" fill="white"/>
<path d="M59.4632 27.9171C59.4632 30.9416 57.8399 32.8847 55.3901 32.8847C54.7696 32.9171 54.1524 32.7746 53.6093 32.4734C53.0662 32.1723 52.6191 31.7247 52.3193 31.1819H52.2729V36.0026H50.2695V23.0502H52.2087V24.669H52.2456C52.5592 24.1288 53.0139 23.6836 53.5611 23.3806C54.1083 23.0776 54.7277 22.9282 55.3533 22.9483C57.8304 22.9483 59.4632 24.901 59.4632 27.9171ZM57.4041 27.9171C57.4041 25.9466 56.3829 24.6511 54.8248 24.6511C53.2941 24.6511 52.2645 25.9739 52.2645 27.9171C52.2645 29.8781 53.2941 31.1914 54.8248 31.1914C56.3829 31.1914 57.4041 29.9054 57.4041 27.9171Z" fill="white"/>
<path d="M70.2054 27.9171C70.2054 30.9415 68.5821 32.8847 66.1323 32.8847C65.5118 32.9171 64.8946 32.7745 64.3515 32.4734C63.8084 32.1723 63.3613 31.7247 63.0615 31.1819H63.0151V36.0026H61.0117V23.0502H62.9509V24.669H62.9877C63.3014 24.1288 63.756 23.6835 64.3033 23.3806C64.8505 23.0776 65.4699 22.9282 66.0955 22.9483C68.5726 22.9483 70.2054 24.901 70.2054 27.9171ZM68.1462 27.9171C68.1462 25.9466 67.1251 24.6511 65.567 24.6511C64.0363 24.6511 63.0067 25.9739 63.0067 27.9171C63.0067 29.8781 64.0363 31.1914 65.567 31.1914C67.1251 31.1914 68.1463 29.9054 68.1463 27.9171H68.1462Z" fill="white"/>
<path d="M77.3047 29.0634C77.4531 30.3872 78.7428 31.2564 80.5051 31.2564C82.1937 31.2564 83.4086 30.3872 83.4086 29.1935C83.4086 28.1574 82.6758 27.537 80.9409 27.1118L79.206 26.695C76.7478 26.1029 75.6066 24.9565 75.6066 23.0963C75.6066 20.793 77.6195 19.2109 80.4777 19.2109C83.3064 19.2109 85.2456 20.793 85.3109 23.0963H83.2885C83.1675 21.7641 82.0631 20.9599 80.4492 20.9599C78.8354 20.9599 77.731 21.7735 77.731 22.9577C77.731 23.9015 78.4364 24.4568 80.1618 24.8819L81.6367 25.2431C84.3834 25.8908 85.5246 26.991 85.5246 28.9436C85.5246 31.4411 83.5296 33.0053 80.3566 33.0053C77.3878 33.0053 75.3834 31.4779 75.2539 29.0633L77.3047 29.0634Z" fill="white"/>
<path d="M89.848 20.7468V23.0501H91.704V24.6322H89.848V29.9977C89.848 30.8312 90.2196 31.2197 91.0355 31.2197C91.2558 31.2158 91.4758 31.2004 91.6945 31.1735V32.7461C91.3277 32.8144 90.9548 32.8454 90.5817 32.8384C88.6057 32.8384 87.8351 32.0983 87.8351 30.2108V24.6322H86.416V23.0501H87.8351V20.7468H89.848Z" fill="white"/>
<path d="M92.7793 27.9172C92.7793 24.855 94.5879 22.9307 97.4082 22.9307C100.238 22.9307 102.038 24.8549 102.038 27.9172C102.038 30.9879 100.248 32.9038 97.4082 32.9038C94.57 32.9038 92.7793 30.9879 92.7793 27.9172ZM99.997 27.9172C99.997 25.8166 99.0316 24.5768 97.4082 24.5768C95.7849 24.5768 94.8206 25.826 94.8206 27.9172C94.8206 30.0263 95.7849 31.2567 97.4082 31.2567C99.0316 31.2567 99.9969 30.0263 99.9969 27.9172H99.997Z" fill="white"/>
<path d="M103.691 23.0498H105.602V24.7064H105.649C105.778 24.189 106.082 23.7318 106.509 23.4116C106.937 23.0913 107.462 22.9276 107.996 22.948C108.227 22.9472 108.457 22.9722 108.683 23.0225V24.8912C108.391 24.8024 108.087 24.7616 107.782 24.7704C107.491 24.7587 107.201 24.8098 106.932 24.9205C106.663 25.0311 106.42 25.1985 106.222 25.4112C106.024 25.6239 105.874 25.8769 105.783 26.1529C105.692 26.4288 105.662 26.7211 105.695 27.0097V32.7826H103.691L103.691 23.0498Z" fill="white"/>
<path d="M117.917 29.9242C117.648 31.691 115.922 32.9036 113.715 32.9036C110.876 32.9036 109.113 31.0066 109.113 27.9632C109.113 24.9104 110.885 22.9304 113.631 22.9304C116.331 22.9304 118.029 24.7802 118.029 27.7312V28.4156H111.136V28.5364C111.104 28.8946 111.149 29.2554 111.268 29.5949C111.386 29.9345 111.576 30.2449 111.825 30.5056C112.073 30.7664 112.374 30.9715 112.708 31.1072C113.042 31.243 113.401 31.3064 113.761 31.2932C114.235 31.3374 114.71 31.2281 115.116 30.9814C115.522 30.7348 115.837 30.364 116.015 29.9242L117.917 29.9242ZM111.145 27.0194H116.025C116.043 26.6973 115.994 26.375 115.881 26.0727C115.768 25.7704 115.594 25.4947 115.369 25.2627C115.144 25.0308 114.874 24.8477 114.574 24.7249C114.275 24.6021 113.954 24.5423 113.631 24.5492C113.304 24.5473 112.981 24.6098 112.679 24.7331C112.377 24.8565 112.103 25.0382 111.872 25.2679C111.641 25.4975 111.457 25.7706 111.333 26.0712C111.208 26.3718 111.144 26.6941 111.145 27.0194V27.0194Z" fill="white"/>
<path d="M40.7765 9.38533C41.1966 9.35527 41.618 9.41855 42.0105 9.57059C42.4031 9.72263 42.7568 9.95965 43.0464 10.2645C43.3359 10.5694 43.554 10.9346 43.6849 11.3337C43.8157 11.7328 43.8562 12.156 43.8032 12.5725C43.8032 14.6218 42.6926 15.7997 40.7765 15.7997H38.4531V9.38533H40.7765ZM39.4522 14.8926H40.6649C40.9651 14.9104 41.2654 14.8614 41.5441 14.7489C41.8228 14.6365 42.0729 14.4634 42.2761 14.2425C42.4793 14.0215 42.6305 13.7581 42.7188 13.4715C42.807 13.1849 42.8301 12.8822 42.7862 12.5856C42.8269 12.2902 42.8015 11.9894 42.7119 11.7049C42.6223 11.4204 42.4707 11.1591 42.268 10.9399C42.0652 10.7207 41.8164 10.5489 41.5392 10.4369C41.2621 10.3248 40.9635 10.2753 40.6649 10.2918H39.4522V14.8926Z" fill="white"/>
<path d="M44.9327 13.3768C44.9022 13.0587 44.9387 12.7378 45.0398 12.4345C45.141 12.1313 45.3046 11.8525 45.5201 11.616C45.7357 11.3796 45.9984 11.1906 46.2915 11.0613C46.5845 10.932 46.9015 10.8652 47.2219 10.8652C47.5424 10.8652 47.8593 10.932 48.1524 11.0613C48.4454 11.1906 48.7081 11.3796 48.9237 11.616C49.1392 11.8525 49.3028 12.1313 49.404 12.4345C49.5051 12.7378 49.5416 13.0587 49.5111 13.3768C49.5422 13.6953 49.5062 14.0167 49.4053 14.3204C49.3044 14.6241 49.1409 14.9034 48.9253 15.1404C48.7097 15.3773 48.4468 15.5667 48.1534 15.6962C47.8601 15.8258 47.5428 15.8927 47.2219 15.8927C46.9011 15.8927 46.5838 15.8258 46.2904 15.6962C45.9971 15.5667 45.7341 15.3773 45.5185 15.1404C45.303 14.9034 45.1395 14.6241 45.0386 14.3204C44.9377 14.0167 44.9016 13.6953 44.9327 13.3768ZM48.5257 13.3768C48.5257 12.3276 48.053 11.714 47.2235 11.714C46.3908 11.714 45.9223 12.3276 45.9223 13.3769C45.9223 14.4345 46.3908 15.0434 47.2235 15.0434C48.0531 15.0434 48.5257 14.4303 48.5257 13.3768H48.5257Z" fill="white"/>
<path d="M55.5974 15.7996H54.6036L53.6004 12.2345H53.5246L52.5255 15.7996H51.5412L50.2031 10.959H51.1748L52.0444 14.6527H52.116L53.114 10.959H54.033L55.031 14.6527H55.1068L55.9722 10.959H56.9302L55.5974 15.7996Z" fill="white"/>
<path d="M58.0547 10.9595H58.9769V11.7285H59.0485C59.1699 11.4523 59.3748 11.2208 59.6344 11.0662C59.8941 10.9116 60.1956 10.8417 60.4971 10.8661C60.7333 10.8484 60.9704 10.8839 61.191 10.97C61.4116 11.0561 61.6099 11.1906 61.7712 11.3635C61.9326 11.5364 62.0529 11.7433 62.1231 11.9689C62.1934 12.1944 62.2119 12.4329 62.1773 12.6665V15.8001H61.2193V12.9064C61.2193 12.1285 60.8803 11.7416 60.1718 11.7416C60.0114 11.7342 59.8513 11.7614 59.7025 11.8214C59.5537 11.8814 59.4196 11.9728 59.3095 12.0894C59.1994 12.2059 59.1159 12.3447 59.0647 12.4965C59.0134 12.6482 58.9957 12.8091 59.0127 12.9683V15.8002H58.0547L58.0547 10.9595Z" fill="white"/>
<path d="M63.7031 9.06934H64.6611V15.7996H63.7031V9.06934Z" fill="white"/>
<path d="M65.9932 13.3769C65.9627 13.0588 65.9992 12.7378 66.1004 12.4346C66.2016 12.1313 66.3652 11.8525 66.5808 11.6161C66.7964 11.3796 67.0591 11.1906 67.3522 11.0613C67.6453 10.932 67.9622 10.8652 68.2827 10.8652C68.6032 10.8652 68.9201 10.932 69.2132 11.0613C69.5063 11.1906 69.769 11.3796 69.9846 11.6161C70.2002 11.8525 70.3638 12.1313 70.465 12.4346C70.5661 12.7378 70.6027 13.0588 70.5722 13.3769C70.6032 13.6954 70.5671 14.0168 70.4662 14.3205C70.3653 14.6242 70.2018 14.9035 69.9861 15.1405C69.7705 15.3774 69.5076 15.5667 69.2142 15.6963C68.9209 15.8259 68.6036 15.8928 68.2827 15.8928C67.9618 15.8928 67.6445 15.8259 67.3512 15.6963C67.0578 15.5667 66.7949 15.3774 66.5793 15.1405C66.3636 14.9035 66.2001 14.6242 66.0992 14.3205C65.9983 14.0168 65.9622 13.6954 65.9932 13.3769ZM69.5863 13.3769C69.5863 12.3277 69.1136 11.714 68.284 11.714C67.4513 11.714 66.9828 12.3277 66.9828 13.3769C66.9828 14.4346 67.4513 15.0435 68.284 15.0435C69.1136 15.0435 69.5863 14.4304 69.5863 13.3769H69.5863Z" fill="white"/>
<path d="M71.582 14.4304C71.582 13.559 72.2326 13.0567 73.3875 12.9853L74.7024 12.9097V12.4919C74.7024 11.9806 74.3634 11.692 73.7086 11.692C73.1738 11.692 72.8032 11.8877 72.6969 12.23H71.7694C71.8673 11.3985 72.6516 10.8652 73.7528 10.8652C74.9698 10.8652 75.6562 11.4694 75.6562 12.4919V15.7993H74.734V15.119H74.6582C74.5043 15.3631 74.2883 15.562 74.0321 15.6955C73.776 15.829 73.4889 15.8924 73.2001 15.8791C72.9963 15.9002 72.7904 15.8785 72.5955 15.8154C72.4006 15.7523 72.2212 15.6492 72.0687 15.5127C71.9163 15.3762 71.7942 15.2094 71.7104 15.023C71.6266 14.8365 71.5828 14.6347 71.582 14.4304ZM74.7024 14.0167V13.612L73.517 13.6876C72.8485 13.7322 72.5453 13.959 72.5453 14.3857C72.5453 14.8214 72.9243 15.0749 73.4454 15.0749C73.5981 15.0903 73.7524 15.075 73.899 15.0297C74.0456 14.9845 74.1816 14.9103 74.2989 14.8116C74.4161 14.7128 74.5123 14.5916 74.5816 14.455C74.6509 14.3185 74.692 14.1694 74.7024 14.0167Z" fill="white"/>
<path d="M76.9141 13.3772C76.9141 11.8477 77.7026 10.8787 78.929 10.8787C79.2324 10.8648 79.5335 10.9372 79.7971 11.0876C80.0607 11.238 80.2759 11.4601 80.4176 11.7279H80.4892V9.06934H81.4472V15.7996H80.5292V15.0348H80.4534C80.3008 15.3009 80.078 15.5202 79.8093 15.6691C79.5406 15.818 79.2362 15.8907 78.929 15.8794C77.6942 15.8795 76.9141 14.9105 76.9141 13.3772ZM77.9037 13.3772C77.9037 14.4039 78.389 15.0217 79.2007 15.0217C80.0081 15.0217 80.5071 14.395 80.5071 13.3814C80.5071 12.3726 80.0029 11.7369 79.2007 11.7369C78.3942 11.7369 77.9036 12.3589 77.9036 13.3772H77.9037Z" fill="white"/>
<path d="M85.4093 13.3768C85.3787 13.0587 85.4152 12.7378 85.5164 12.4345C85.6176 12.1313 85.7812 11.8525 85.9967 11.616C86.2122 11.3796 86.475 11.1906 86.768 11.0613C87.0611 10.932 87.378 10.8652 87.6985 10.8652C88.0189 10.8652 88.3359 10.932 88.6289 11.0613C88.922 11.1906 89.1847 11.3796 89.4002 11.616C89.6158 11.8525 89.7794 12.1313 89.8805 12.4345C89.9817 12.7378 90.0182 13.0587 89.9877 13.3768C90.0188 13.6953 89.9827 14.0167 89.8818 14.3204C89.7809 14.6241 89.6174 14.9034 89.4018 15.1404C89.1862 15.3773 88.9233 15.5667 88.63 15.6962C88.3366 15.8258 88.0193 15.8927 87.6985 15.8927C87.3776 15.8927 87.0603 15.8258 86.767 15.6962C86.4736 15.5667 86.2107 15.3773 85.9951 15.1404C85.7795 14.9034 85.616 14.6241 85.5151 14.3204C85.4142 14.0167 85.3782 13.6953 85.4093 13.3768ZM89.0023 13.3768C89.0023 12.3276 88.5296 11.714 87.7001 11.714C86.8673 11.714 86.3989 12.3276 86.3989 13.3769C86.3989 14.4345 86.8674 15.0434 87.7001 15.0434C88.5296 15.0434 89.0023 14.4303 89.0023 13.3768Z" fill="white"/>
<path d="M91.2734 10.9586H92.1956V11.7275H92.2672C92.3887 11.4513 92.5935 11.2198 92.8532 11.0652C93.1128 10.9106 93.4144 10.8407 93.7158 10.8651C93.952 10.8474 94.1892 10.8829 94.4097 10.969C94.6303 11.0551 94.8286 11.1896 94.99 11.3625C95.1513 11.5354 95.2716 11.7423 95.3419 11.9679C95.4122 12.1934 95.4307 12.4319 95.396 12.6655V15.7992H94.438V12.9054C94.438 12.1275 94.099 11.7407 93.3905 11.7407C93.2302 11.7332 93.0701 11.7604 92.9212 11.8204C92.7724 11.8805 92.6384 11.9719 92.5283 12.0884C92.4182 12.2049 92.3347 12.3438 92.2834 12.4955C92.2322 12.6472 92.2145 12.8082 92.2314 12.9674V15.7992H91.2734V10.9586Z" fill="white"/>
<path d="M100.812 9.75391V10.9811H101.863V11.7858H100.812V14.2749C100.812 14.7819 101.021 15.004 101.498 15.004C101.62 15.0036 101.742 14.9962 101.863 14.9819V15.7777C101.691 15.8084 101.517 15.8247 101.342 15.8265C100.277 15.8265 99.8526 15.4528 99.8526 14.5195V11.7858H99.082V10.9811H99.8526V9.75391H100.812Z" fill="white"/>
<path d="M103.172 9.06934H104.121V11.7369H104.197C104.325 11.4581 104.535 11.2253 104.8 11.0701C105.065 10.9149 105.371 10.845 105.677 10.8698C105.912 10.857 106.147 10.8961 106.365 10.9843C106.583 11.0725 106.779 11.2076 106.939 11.38C107.099 11.5523 107.218 11.7577 107.289 11.9815C107.36 12.2052 107.38 12.4418 107.349 12.6744V15.7996H106.39V12.91C106.39 12.1369 106.029 11.7453 105.352 11.7453C105.188 11.7318 105.022 11.7544 104.867 11.8114C104.712 11.8685 104.571 11.9586 104.455 12.0755C104.338 12.1924 104.249 12.3332 104.193 12.4881C104.137 12.6431 104.115 12.8084 104.13 12.9725V15.7996H103.172L103.172 9.06934Z" fill="white"/>
<path d="M112.933 14.4924C112.803 14.9348 112.521 15.3175 112.136 15.5735C111.752 15.8295 111.289 15.9425 110.829 15.8928C110.51 15.9012 110.192 15.8402 109.898 15.7138C109.604 15.5875 109.342 15.3989 109.128 15.1612C108.915 14.9234 108.756 14.6423 108.663 14.3372C108.569 14.0321 108.543 13.7103 108.587 13.3943C108.545 13.0773 108.571 12.7549 108.664 12.4488C108.757 12.1428 108.915 11.8603 109.128 11.6205C109.34 11.3807 109.601 11.1892 109.894 11.0589C110.187 10.9286 110.505 10.8626 110.825 10.8653C112.176 10.8653 112.991 11.7855 112.991 13.3056V13.6389H109.563V13.6924C109.548 13.8701 109.57 14.0489 109.629 14.2174C109.687 14.3859 109.78 14.5404 109.902 14.671C110.024 14.8015 110.171 14.9053 110.336 14.9756C110.5 15.0459 110.677 15.0812 110.856 15.0792C111.085 15.1066 111.317 15.0655 111.523 14.961C111.728 14.8565 111.898 14.6934 112.011 14.4924L112.933 14.4924ZM109.563 12.9324H112.015C112.027 12.7699 112.005 12.6067 111.95 12.4533C111.895 12.2999 111.808 12.1596 111.696 12.0415C111.583 11.9234 111.447 11.8301 111.296 11.7676C111.146 11.705 110.983 11.6747 110.82 11.6784C110.654 11.6763 110.49 11.7073 110.336 11.7696C110.183 11.8319 110.043 11.9242 109.926 12.0411C109.809 12.158 109.717 12.297 109.654 12.4501C109.592 12.6032 109.561 12.7672 109.563 12.9324H109.563Z" fill="white"/>
</svg>
