<svg width="221" height="222" viewBox="0 0 221 222" fill="none" xmlns="http://www.w3.org/2000/svg">
<path d="M121.885 129.045C121.082 128.15 119.705 128.081 118.787 128.861C117.961 129.573 103.07 141.024 93.2489 148.552C92.4917 149.126 92.1934 150.135 92.5146 151.03L96.2777 161.954C96.576 162.804 97.3562 163.4 98.274 163.446H98.3658C99.2377 163.446 100.041 162.941 100.385 162.138L105.341 151.008C105.846 149.883 105.341 148.575 104.217 148.093C103.093 147.588 101.785 148.093 101.303 149.217L98.6411 155.207L97.2414 151.099C106.741 143.801 121.289 132.625 121.816 132.097C122.688 131.271 122.711 129.917 121.908 129.022" fill="#93C059"/>
<path d="M137.193 130.788C144.398 130.788 150.249 124.936 150.249 117.73C150.249 110.524 144.398 104.672 137.193 104.672C129.988 104.672 124.137 110.524 124.137 117.73C124.137 124.936 129.988 130.788 137.193 130.788ZM137.193 109.239C141.874 109.239 145.683 113.048 145.683 117.73C145.683 122.412 141.874 126.221 137.193 126.221C132.512 126.221 128.703 122.412 128.703 117.73C128.703 113.048 132.512 109.239 137.193 109.239Z" fill="#93C059"/>
<path d="M213.28 69.9958C210.091 61.9176 205.938 54.2066 200.936 47.0923C199.352 44.8203 197.723 42.6401 196.048 40.6435C174.984 14.8024 143.801 0 110.461 0C55.6893 0 8.67349 40.85 1.07845 94.9878C0.367134 100.083 0 105.292 0 110.456C0 124.202 2.50113 137.651 7.43446 150.365C15.3966 170.928 29.187 188.484 47.337 201.129C65.9001 214.073 87.7215 220.934 110.461 220.934C114.063 220.934 117.689 220.751 121.222 220.407C122.438 220.292 123.333 219.213 123.196 217.997C123.058 216.781 121.979 215.886 120.786 216.023C117.413 216.367 113.926 216.528 110.461 216.528C68.4012 216.528 29.8065 191.008 13.1479 152.614H86.0924C87.3085 152.614 88.2952 151.627 88.2952 150.411C88.2952 149.194 87.3085 148.208 86.0924 148.208H11.3811C6.79198 136.182 4.45148 123.491 4.45148 110.502C4.45148 106.072 4.74976 101.62 5.30046 97.2139H158.188V103.066C158.188 104.282 159.175 105.269 160.391 105.269C161.607 105.269 162.593 104.282 162.593 103.066V42.8466H192.102C192.285 43.0761 192.469 43.2597 192.652 43.4892C193.731 44.7973 194.809 46.1972 195.842 47.6201C193.226 47.4824 190.564 47.7807 188.063 48.561C178.678 51.4527 172.391 59.9899 172.391 69.7893C172.391 82.0443 182.373 92.0043 194.603 92.0043C199.536 92.0043 204.171 90.4209 208.049 87.4604C209.885 86.0605 211.468 84.4081 212.776 82.5492C215.254 91.6142 216.516 100.955 216.516 110.479C216.516 123.468 214.175 136.159 209.609 148.185H173.516C172.299 148.185 171.313 149.171 171.313 150.388C171.313 151.604 172.299 152.591 173.516 152.591H207.82C200.729 168.908 189.623 183.251 175.489 194.221C174.525 194.979 174.342 196.356 175.099 197.319C175.856 198.283 177.233 198.467 178.197 197.71C194.075 185.386 206.282 169 213.51 150.342C218.443 137.605 220.921 124.179 220.921 110.433C220.921 96.686 218.351 82.8476 213.28 69.9729M57.1578 92.7387H39.1684V89.9619C39.1684 88.2636 40.5681 86.8637 42.2661 86.8637H54.0601C55.7581 86.8637 57.1578 88.2407 57.1578 89.9619V92.7387ZM87.4462 92.7387H69.4796V85.5555C69.4796 83.8573 70.8564 82.4574 72.5773 82.4574H84.3715C86.0695 82.4574 87.4692 83.8343 87.4692 85.5555V92.7387H87.4462ZM118.033 92.7387H100.066V89.9619C100.066 88.2636 101.466 86.8637 103.164 86.8637H114.958C116.656 86.8637 118.033 88.2407 118.033 89.9619V92.7387ZM148.482 92.7387H130.492V85.5555C130.492 83.8573 131.892 82.4574 133.59 82.4574H145.384C147.082 82.4574 148.482 83.8343 148.482 85.5555V92.7387ZM160.368 38.3715C159.152 38.3715 158.165 39.3583 158.165 40.5747V92.7387H152.91V85.5555C152.91 81.4017 149.537 78.0281 145.384 78.0281H133.59C129.437 78.0281 126.064 81.4017 126.064 85.5555V92.7387H122.438V89.9619C122.438 85.808 119.065 82.4345 114.935 82.4345H103.141C99.0108 82.4345 95.6378 85.808 95.6378 89.9619V92.7387H91.8747V85.5555C91.8747 81.4017 88.5017 78.0281 84.3485 78.0281H72.5544C68.4013 78.0281 65.0511 81.4017 65.0511 85.5555V92.7387H61.5634V89.9619C61.5634 85.808 58.1903 82.4345 54.0601 82.4345H42.2661C38.1129 82.4345 34.7399 85.808 34.7399 89.9619V92.7387H5.89707C14.4099 42.1811 58.8328 4.38332 110.438 4.38332C140.175 4.38332 168.146 16.6843 188.178 38.3486H160.345L160.368 38.3715ZM205.364 83.9032C202.267 86.2899 198.526 87.5522 194.603 87.5522C184.782 87.5522 176.797 79.5658 176.797 69.7434C176.797 61.8947 181.845 55.0557 189.348 52.7378C192.583 51.751 196.071 51.7051 199.33 52.6002C203.253 58.59 206.557 64.9699 209.173 71.6023C209.816 73.2547 210.412 74.93 210.986 76.6053C209.793 79.474 207.888 81.9984 205.364 83.9032Z" fill="#93C059"/>
<path d="M124.573 37.7053C123.701 37.7053 123.013 38.3938 123.013 39.2659V41.1936C123.013 42.0657 123.701 42.7542 124.573 42.7542C125.445 42.7542 126.133 42.0657 126.133 41.1936V39.2659C126.133 38.3938 125.445 37.7053 124.573 37.7053Z" fill="#93C059"/>
<path d="M124.572 46.9778C123.7 46.9778 123.012 47.6663 123.012 48.5384V50.4661C123.012 51.3382 123.7 52.0267 124.572 52.0267C125.444 52.0267 126.132 51.3382 126.132 50.4661V48.5384C126.132 47.6663 125.444 46.9778 124.572 46.9778Z" fill="#93C059"/>
<path d="M131.736 44.8646C131.736 43.9925 131.047 43.304 130.175 43.304H128.248C127.376 43.304 126.688 43.9925 126.688 44.8646C126.688 45.7367 127.376 46.4251 128.248 46.4251H130.175C131.047 46.4251 131.736 45.7367 131.736 44.8646Z" fill="#93C059"/>
<path d="M120.903 43.304H118.975C118.126 43.304 117.415 43.9925 117.415 44.8646C117.415 45.7367 118.103 46.4251 118.975 46.4251H120.903C121.775 46.4251 122.463 45.7367 122.463 44.8646C122.463 43.9925 121.775 43.304 120.903 43.304Z" fill="#93C059"/>
<path d="M59.3855 39.8169C58.5136 39.8169 57.8252 40.5054 57.8252 41.3774V43.3052C57.8252 44.1543 58.5136 44.8658 59.3855 44.8658C60.2574 44.8658 60.9458 44.1773 60.9458 43.3052V41.3774C60.9458 40.5054 60.2574 39.8169 59.3855 39.8169Z" fill="#93C059"/>
<path d="M59.3845 49.1116C58.5126 49.1116 57.8242 49.8 57.8242 50.6721V52.5999C57.8242 53.4719 58.5126 54.1604 59.3845 54.1604C60.2564 54.1604 60.9448 53.4719 60.9448 52.5999V50.6721C60.9448 49.8 60.2564 49.1116 59.3845 49.1116Z" fill="#93C059"/>
<path d="M64.9838 45.4377H63.0564C62.2074 45.4377 61.4961 46.1262 61.4961 46.9983C61.4961 47.8704 62.1844 48.5588 63.0564 48.5588H64.9838C65.8558 48.5588 66.5441 47.8704 66.5441 46.9983C66.5441 46.1262 65.8558 45.4377 64.9838 45.4377Z" fill="#93C059"/>
<path d="M53.7635 48.5374H55.6909C56.5629 48.5374 57.2512 47.8489 57.2512 46.9768C57.2512 46.1047 56.5629 45.4163 55.6909 45.4163H53.7635C52.9145 45.4163 52.2031 46.1047 52.2031 46.9768C52.2031 47.8489 52.8915 48.5374 53.7635 48.5374Z" fill="#93C059"/>
<path d="M94.6081 44.4524C93.7592 44.4524 93.0479 45.1409 93.0479 46.013V47.9408C93.0479 48.8128 93.7362 49.5013 94.6081 49.5013C95.4801 49.5013 96.1684 48.8128 96.1684 47.9408V46.013C96.1684 45.1409 95.4801 44.4524 94.6081 44.4524Z" fill="#93C059"/>
<path d="M94.6081 53.7473C93.7592 53.7473 93.0479 54.4358 93.0479 55.3079V57.2356C93.0479 58.1077 93.7362 58.7962 94.6081 58.7962C95.4801 58.7962 96.1684 58.1077 96.1684 57.2356V55.3079C96.1684 54.4358 95.4801 53.7473 94.6081 53.7473Z" fill="#93C059"/>
<path d="M101.767 51.635C101.767 50.7629 101.078 50.0745 100.206 50.0745H98.279C97.4071 50.0745 96.7188 50.7629 96.7188 51.635C96.7188 52.5071 97.4071 53.1956 98.279 53.1956H100.206C101.078 53.1956 101.767 52.5071 101.767 51.635Z" fill="#93C059"/>
<path d="M90.9389 50.0745H89.0115C88.1395 50.0745 87.4512 50.7629 87.4512 51.635C87.4512 52.5071 88.1395 53.1956 89.0115 53.1956H90.9389C91.7879 53.1956 92.4992 52.5071 92.4992 51.635C92.4992 50.7629 91.8108 50.0745 90.9389 50.0745Z" fill="#93C059"/>
<path d="M121.725 148.161H111.95C110.734 148.161 109.747 149.148 109.747 150.365C109.747 151.581 110.734 152.568 111.95 152.568H121.725C122.941 152.568 123.928 151.581 123.928 150.365C123.928 149.148 122.941 148.161 121.725 148.161Z" fill="#93C059"/>
<path d="M68.6071 132.281H92.5854C93.8015 132.281 94.7881 131.294 94.7881 130.077C94.7881 128.861 93.8015 127.874 92.5854 127.874H68.6071C67.391 127.874 66.4043 128.861 66.4043 130.077C66.4043 131.294 67.391 132.281 68.6071 132.281Z" fill="#93C059"/>
<path d="M68.6071 120.965H105.848C107.064 120.965 108.051 119.978 108.051 118.762C108.051 117.546 107.064 116.559 105.848 116.559H68.6071C67.391 116.559 66.4043 117.546 66.4043 118.762C66.4043 119.978 67.391 120.965 68.6071 120.965Z" fill="#93C059"/>
<path d="M183.339 102.355H205.848C207.064 102.355 208.051 101.368 208.051 100.152C208.051 98.9353 207.064 97.9485 205.848 97.9485H183.339C182.122 97.9485 181.136 98.9353 181.136 100.152C181.136 101.368 182.122 102.355 183.339 102.355Z" fill="#93C059"/>
<path d="M183.339 111.694H205.848C207.064 111.694 208.051 110.707 208.051 109.491C208.051 108.274 207.064 107.287 205.848 107.287H183.339C182.122 107.287 181.136 108.274 181.136 109.491C181.136 110.707 182.122 111.694 183.339 111.694Z" fill="#93C059"/>
<path d="M183.339 121.034H205.848C207.064 121.034 208.051 120.047 208.051 118.83C208.051 117.614 207.064 116.627 205.848 116.627H183.339C182.122 116.627 181.136 117.614 181.136 118.83C181.136 120.047 182.122 121.034 183.339 121.034Z" fill="#93C059"/>
<path d="M43.0935 107.265C33.6629 107.265 25.999 114.93 25.999 124.362C25.999 133.794 33.6629 141.459 43.0935 141.459C52.5242 141.459 60.1881 133.794 60.1881 124.362C60.1881 114.93 52.5242 107.265 43.0935 107.265ZM43.0935 137.03C36.0951 137.03 30.4275 131.339 30.4275 124.362C30.4275 117.385 36.118 111.694 43.0935 111.694C50.069 111.694 55.7596 117.385 55.7596 124.362C55.7596 131.339 50.069 137.03 43.0935 137.03Z" fill="#93C059"/>
<path d="M100.734 191.512C97.5446 191.512 94.9746 194.105 94.9746 197.272C94.9746 200.439 97.5675 203.033 100.734 203.033C103.901 203.033 106.493 200.439 106.493 197.272C106.493 194.105 103.901 191.512 100.734 191.512ZM100.734 198.626C99.9997 198.626 99.3801 198.03 99.3801 197.272C99.3801 196.515 99.9768 195.918 100.734 195.918C101.491 195.918 102.088 196.515 102.088 197.272C102.088 198.03 101.491 198.626 100.734 198.626Z" fill="#93C059"/>
<path d="M48.165 60.3333C42.4056 60.3333 37.7246 65.0149 37.7246 70.7752C37.7246 76.5355 42.4056 81.2173 48.165 81.2173C53.9243 81.2173 58.6052 76.5355 58.6052 70.7752C58.6052 65.0149 53.9243 60.3333 48.165 60.3333ZM48.165 76.788C44.8378 76.788 42.1532 74.1029 42.1532 70.7752C42.1532 67.4476 44.8608 64.7625 48.165 64.7625C51.4691 64.7625 54.1767 67.4705 54.1767 70.7752C54.1767 74.0799 51.4691 76.788 48.165 76.788Z" fill="#93C059"/>
<path d="M78.7743 55.5139C73.015 55.5139 68.334 60.1956 68.334 65.956C68.334 71.7163 73.015 76.3979 78.7743 76.3979C84.5337 76.3979 89.2146 71.7163 89.2146 65.956C89.2146 60.1956 84.5337 55.5139 78.7743 55.5139ZM78.7743 71.9687C75.4472 71.9687 72.7626 69.2836 72.7626 65.956C72.7626 62.6283 75.4701 59.9431 78.7743 59.9431C82.0785 59.9431 84.7861 62.6512 84.7861 65.956C84.7861 69.2607 82.0785 71.9687 78.7743 71.9687Z" fill="#93C059"/>
<path d="M139.787 55.5139C134.028 55.5139 129.347 60.1956 129.347 65.956C129.347 71.7163 134.028 76.3979 139.787 76.3979C145.546 76.3979 150.227 71.7163 150.227 65.956C150.227 60.1956 145.546 55.5139 139.787 55.5139ZM139.787 71.9687C136.46 71.9687 133.775 69.2836 133.775 65.956C133.775 62.6283 136.483 59.9431 139.787 59.9431C143.091 59.9431 145.799 62.6512 145.799 65.956C145.799 69.2607 143.091 71.9687 139.787 71.9687Z" fill="#93C059"/>
<path d="M109.359 60.3333C103.6 60.3333 98.9189 65.0149 98.9189 70.7752C98.9189 76.5355 103.6 81.2173 109.359 81.2173C115.119 81.2173 119.8 76.5355 119.8 70.7752C119.8 65.0149 115.119 60.3333 109.359 60.3333ZM109.359 76.788C106.055 76.788 103.347 74.1029 103.347 70.7752C103.347 67.4476 106.055 64.7625 109.359 64.7625C112.663 64.7625 115.371 67.4705 115.371 70.7752C115.371 74.0799 112.663 76.788 109.359 76.788Z" fill="#93C059"/>
<path d="M156.747 187.221C155.623 187.084 154.59 187.841 154.338 188.92C154.177 189.585 154.039 190.228 153.902 190.893C153.466 192.959 153.03 194.932 152.364 196.814C150.391 202.368 147.798 207.968 144.448 213.935C143.852 214.99 144.242 216.344 145.297 216.941C145.641 217.125 146.008 217.216 146.376 217.216C147.156 217.216 147.89 216.803 148.303 216.092C149.45 214.026 150.529 212.03 151.515 210.033C151.355 210.63 151.194 211.25 151.034 211.869C150.735 213.04 151.424 214.256 152.617 214.577C153.81 214.876 155.003 214.187 155.301 212.994C156.586 208.105 157.596 204.02 158.216 199.591C158.674 196.309 158.674 193.074 158.674 189.952V189.425C158.674 188.3 157.825 187.359 156.701 187.221" fill="#93C059"/>
<path d="M169.387 174.967C169.364 174.806 169.318 174.646 169.272 174.485C168.401 170.17 166.84 165.879 164.247 160.578C163.031 158.145 161.609 155.965 160.232 153.922C159.865 153.394 159.452 152.867 159.039 152.362C158.19 151.306 157.432 150.388 157.364 149.378C157.272 148.323 158.006 147.037 158.763 145.821C159.314 144.949 159.865 144.123 160.438 143.297C162.274 140.589 164.179 137.789 165.05 134.025C165.693 131.202 166.129 128.012 164.614 125.648C163.811 124.386 162.526 123.537 160.92 123.193C156.561 122.229 154.472 126.085 153.233 128.379L153.096 128.632C150.663 133.176 147.566 136.159 143.849 137.536C143.091 137.812 142.38 138.018 141.646 138.156C136.621 139.12 131.412 140.13 129.691 146.808C129.393 147.978 129.232 149.149 129.209 150.296C129.072 154.152 130.311 158.191 132.949 162.643C134.257 164.869 136.093 166.613 137.837 168.289C138.594 169.023 139.351 169.734 140.063 170.492C141.233 171.731 142.013 172.833 142.541 174.003C142.77 174.485 142.931 174.99 143.068 175.541C143.757 178.295 143.206 181.278 142.61 184.422L142.426 185.432C141.554 190.205 140.384 194.222 138.732 198.031C136.85 202.437 134.487 206.431 131.986 210.676C130.861 212.581 129.737 214.463 128.659 216.437C128.245 217.194 127.947 218.02 127.764 218.846C127.534 220.04 128.314 221.21 129.507 221.44C129.645 221.463 129.783 221.485 129.921 221.485C130.953 221.485 131.894 220.751 132.1 219.695C132.169 219.328 132.307 218.938 132.513 218.571C133.569 216.666 134.67 214.784 135.772 212.925C138.25 208.748 140.797 204.434 142.793 199.752C144.56 195.621 145.822 191.33 146.763 186.212L146.946 185.225C147.589 181.76 148.277 178.157 147.336 174.508C147.153 173.705 146.877 172.901 146.533 172.144C145.799 170.538 144.766 169.046 143.275 167.462C142.495 166.613 141.669 165.833 140.889 165.076C139.282 163.538 137.745 162.069 136.735 160.371C134.533 156.653 133.5 153.394 133.615 150.388C133.615 149.562 133.73 148.736 133.959 147.909C134.946 144.1 137.286 143.48 142.518 142.47C143.459 142.287 144.399 142.034 145.386 141.667C150.136 139.923 154.036 136.228 156.974 130.72L157.111 130.468C158.488 127.898 159.062 127.301 159.957 127.507C160.599 127.645 160.783 127.92 160.851 128.012C161.586 129.137 160.92 132.074 160.691 133.015C160.025 135.976 158.511 138.202 156.744 140.772C156.147 141.644 155.551 142.516 154.977 143.411C153.853 145.179 152.683 147.267 152.912 149.723C153.119 152.063 154.472 153.739 155.551 155.093C155.895 155.506 156.216 155.919 156.515 156.355C157.846 158.351 159.153 160.325 160.232 162.505C162.664 167.485 164.11 171.479 164.89 175.426C164.89 175.472 164.936 175.587 164.936 175.632L165.005 175.977C165.876 180.658 166.68 185.661 166.611 190.641C166.542 195.208 166.083 199.821 165.188 204.778C164.959 205.972 165.762 207.119 166.978 207.349C168.171 207.555 169.318 206.775 169.548 205.559C170.489 200.372 170.97 195.507 171.039 190.71C171.108 185.34 170.282 180.085 169.364 175.173C169.364 175.151 169.318 174.967 169.318 174.944" fill="#93C059"/>
</svg>
