<svg width="213" height="213" viewBox="0 0 213 213" fill="none" xmlns="http://www.w3.org/2000/svg">
<path d="M178.914 28.5224C178.715 28.126 178.384 27.8176 177.964 27.6194C159.045 10.4619 133.937 0 106.398 0C47.74 0 0 47.5521 0 106.029C0 164.505 47.7179 212.057 106.398 212.057C138.357 212.057 168.327 197.939 188.639 173.315C189.391 172.412 189.258 171.069 188.352 170.32C187.446 169.571 186.097 169.703 185.346 170.606C165.852 194.239 137.076 207.806 106.398 207.806C50.0828 207.806 4.26564 162.148 4.26564 106.029C4.26564 49.9088 50.0828 4.25082 106.398 4.25082C116.764 4.25082 126.776 5.81462 136.214 8.67788C132.257 13.171 130.025 18.9195 130.025 24.9764C130.025 38.6099 141.142 49.6885 154.823 49.6885C165.277 49.6885 174.494 43.103 178.052 33.5882C196.839 52.0672 208.531 77.7044 208.531 106.029C208.531 119.684 205.857 132.921 200.618 145.387C200.154 146.467 200.662 147.722 201.745 148.163C202.828 148.625 204.066 148.096 204.53 147.017C210.012 134.022 212.774 120.235 212.774 106.007C212.774 75.4358 199.712 47.8825 178.892 28.5224M154.823 45.4597C143.485 45.4597 134.269 36.2753 134.269 24.9764C134.269 19.36 136.611 14.0079 140.678 10.1535C153.32 14.6687 164.835 21.5846 174.627 30.3506C172.217 39.1606 164.106 45.4377 154.823 45.4377" fill="#B6CB2A"/>
<path d="M42.4355 174.395C42.4355 176.377 44.049 177.985 46.0382 177.985C48.0273 177.985 49.6408 176.377 49.6408 174.395C49.6408 172.413 48.0273 170.805 46.0382 170.805C44.049 170.805 42.4355 172.413 42.4355 174.395Z" fill="#B6CB2A"/>
<path d="M53.6162 180.518C53.6162 182.5 55.2297 184.108 57.2188 184.108C59.208 184.108 60.8214 182.5 60.8214 180.518C60.8214 178.535 59.208 176.927 57.2188 176.927C55.2297 176.927 53.6162 178.535 53.6162 180.518Z" fill="#B6CB2A"/>
<path d="M63.2755 168.448C63.2755 166.466 61.6621 164.858 59.6729 164.858C57.6838 164.858 56.0703 166.466 56.0703 168.448C56.0703 170.431 57.6838 172.038 59.6729 172.038C61.6621 172.038 63.2755 170.431 63.2755 168.448Z" fill="#B6CB2A"/>
<path d="M99.9201 159.814C99.9201 158.646 98.9697 157.699 97.7983 157.699H66.701C66.5242 157.699 66.3695 157.721 66.2148 157.765C64.3362 156.598 62.4796 155.519 60.6894 154.572C60.9767 153.999 61.3966 153.25 61.7723 152.567C66.6789 143.691 79.4538 120.631 76.8458 75.4577L105.954 103.429C106.418 103.87 107.015 104.09 107.634 104.09C107.81 104.09 107.987 104.09 108.142 104.024C108.938 103.848 109.579 103.297 109.866 102.549C113.513 93.1218 110.507 81.5586 102.373 73.7397C101.865 73.2551 101.335 72.7927 100.804 72.3301L120.475 73.2551C120.475 73.2551 120.563 73.2551 120.585 73.2551C121.359 73.2551 122.066 72.8808 122.53 72.2641C123.016 71.6253 123.127 70.7663 122.84 70.0175C119.348 60.5467 109.424 53.829 98.1519 53.2784C96.6047 53.2123 95.0577 53.2564 93.5327 53.4106L107.656 42.2879C108.23 41.8254 108.562 41.0986 108.518 40.3718C108.473 39.6229 108.053 38.9621 107.413 38.5657C98.8591 33.4559 87.764 34.2268 79.7852 40.5039C77.4424 42.354 75.4755 44.5786 73.9505 47.0674C72.8012 45.1953 71.3644 43.4332 69.6847 41.8694C62.2585 34.9536 51.274 33.2577 42.3227 37.6407C41.6597 37.9711 41.1956 38.6098 41.085 39.3366C40.9745 40.0634 41.2396 40.8122 41.7922 41.3188L54.744 53.3886C54.1251 53.3225 53.5062 53.2784 52.8652 53.2344C41.5933 52.7058 31.0729 58.4543 26.6967 67.5507C26.3431 68.2775 26.3873 69.1144 26.8072 69.8192C27.2271 70.502 27.9565 70.9425 28.7522 70.9866L48.7543 71.9336C48.0913 72.4622 47.4503 73.0349 46.8093 73.6296C38.6538 81.4044 35.5816 92.9456 39.1842 102.394C39.4715 103.143 40.1125 103.694 40.9082 103.87C41.085 103.914 41.2618 103.936 41.4386 103.936C42.0575 103.936 42.6542 103.694 43.0962 103.275L69.7953 77.8584C65.6402 104.553 55.9816 127.745 41.0408 146.929C34.4323 145.299 30.1888 145.145 29.9456 145.145C28.6195 145.101 27.5144 146.136 27.4702 147.458C27.426 148.779 28.4648 149.88 29.7909 149.924C29.8572 149.924 37.5928 150.233 48.2901 154.175C58.1475 157.809 72.6022 165.386 85.598 180.804C86.0843 181.376 86.7474 181.662 87.4325 181.662C87.9851 181.662 88.5155 181.486 88.9797 181.09C89.9964 180.231 90.129 178.733 89.267 177.72C84.1394 171.641 78.7906 166.729 73.5525 162.743L72.2486 161.84H97.7319C98.9033 161.84 99.8537 160.893 99.8537 159.726M106.285 97.0863L78.7023 70.5681C85.5317 69.2466 93.2673 71.6694 98.9696 77.1536C104.672 82.6379 107.368 90.2585 106.285 97.1083M97.8645 58.0799C105.777 58.4543 112.85 62.4188 116.563 68.2555L91.6098 67.0661C87.4547 65.5904 83.0564 65.0838 78.9012 65.6785C83.2332 60.6568 90.3278 57.7055 97.8645 58.0579M82.5701 44.0499C88.1398 39.6669 95.566 38.5657 101.953 40.9664L78.6801 59.3133C78.6801 59.3133 78.4813 59.4675 78.3708 59.5556L77.5088 60.2164C77.5751 57.5513 77.1773 54.8863 76.3595 52.3313C77.6635 49.0937 79.7853 46.2524 82.5701 44.0499M47.4945 40.5039C54.0587 38.6538 61.3744 40.3497 66.5463 45.1953C71.3203 49.6443 73.5746 56.1197 72.7569 62.3087C70.392 59.7318 67.4745 57.5954 64.1592 56.0756L47.4724 40.5039H47.4945ZM33.0178 66.4274C37.2835 60.9431 44.6876 57.6834 52.6 58.0579C59.2748 58.3662 65.3528 61.2295 69.3311 65.6565C65.0213 65.172 60.5124 65.8327 56.291 67.5286L33.0178 66.4274V66.4274ZM42.6763 97.0422C41.6375 90.1925 44.3781 82.5718 50.1025 77.1316C54.766 72.6825 60.7998 70.2818 66.5463 70.2818C67.8503 70.2818 69.1322 70.4139 70.392 70.6562L42.6763 97.0422V97.0422ZM56.3131 152.369C53.9703 151.29 51.7602 150.387 49.7268 149.638C48.4228 149.175 47.1851 148.757 45.9916 148.361C58.5675 131.754 67.3641 112.328 72.2928 90.4127C71.674 124.552 61.6618 142.656 57.5067 150.189C57.0204 151.07 56.6226 151.774 56.3352 152.369" fill="#B6CB2A"/>
<path d="M191.556 157.7H163.421C162.249 157.7 161.299 158.648 161.299 159.815C161.299 160.982 162.249 161.929 163.421 161.929H191.556C192.728 161.929 193.678 160.982 193.678 159.815C193.678 158.648 192.728 157.7 191.556 157.7Z" fill="#B6CB2A"/>
<path d="M132.944 159.815C132.944 160.982 133.895 161.929 135.066 161.929H147.841C149.012 161.929 149.963 160.982 149.963 159.815C149.963 158.648 149.012 157.7 147.841 157.7H135.066C133.895 157.7 132.944 158.648 132.944 159.815Z" fill="#B6CB2A"/>
<path d="M174.313 126.006C174.203 125.103 173.539 124.332 172.611 124.156L156.035 120.764C155.394 120.632 154.753 120.786 154.267 121.204C153.78 121.601 153.493 122.217 153.493 122.856V168.668C153.493 169.836 154.443 170.783 155.615 170.783C156.786 170.783 157.737 169.836 157.737 168.668V134.97L173.053 128.186C173.893 127.812 174.401 126.931 174.313 126.028M157.759 130.345V125.477L165.273 127.019L157.759 130.345Z" fill="#B6CB2A"/>
<path d="M114.531 193.138C115.349 194.459 116.653 195.384 118.156 195.737C120.72 196.332 123.129 195.45 124.566 193.578C125.052 192.962 125.428 192.235 125.671 191.42C127.527 184.945 129.273 177.897 129.384 170.342C129.428 166.73 128.853 163.14 128.279 160.1C127.704 157.061 126.643 154.065 124.831 150.409C124.057 148.845 123.173 147.48 122.157 145.982C121.913 145.608 121.626 145.255 121.339 144.903C120.853 144.308 120.433 143.78 120.388 143.339C120.344 142.811 120.897 141.93 121.206 141.445C121.56 140.894 121.913 140.366 122.267 139.837C123.505 138.009 124.787 136.137 125.383 133.56C125.825 131.6 126.135 129.353 125.008 127.591C124.367 126.6 123.394 125.939 122.157 125.675C119.814 125.169 118.355 126.424 117.382 127.745C116.94 128.34 116.587 128.979 116.322 129.463L116.233 129.618C115.791 130.433 115.327 131.159 114.819 131.798C113.272 133.78 111.415 134.97 109.293 135.388C106.774 135.873 104.011 136.401 102.265 138.692C101.668 139.441 101.204 140.388 100.895 141.599C100.033 144.947 100.74 148.471 103.105 152.436C104.011 153.977 105.249 155.145 106.42 156.268C107.614 157.413 108.741 158.492 109.315 159.77C110.177 161.664 109.78 163.756 109.315 166.179L109.205 166.818C108.652 169.857 107.901 172.434 106.84 174.879C105.624 177.698 104.099 180.297 102.464 183.028C101.734 184.284 100.983 185.517 100.276 186.795C99.4579 188.27 99.259 190.01 99.7231 191.618C100.165 193.138 101.182 194.393 102.574 195.142C103.569 195.671 104.608 195.913 105.624 195.913C107.459 195.913 109.183 195.098 110.398 193.578C110.575 193.358 110.73 193.138 110.885 192.896C111.901 191.288 112.83 189.746 113.692 188.248C113.692 188.248 113.692 188.248 113.692 188.27C113.294 189.922 113.581 191.684 114.465 193.094M120.013 131.512L120.101 131.358C120.3 131.005 120.609 130.433 120.897 130.08C120.985 129.97 121.096 129.882 121.162 129.86C121.25 129.86 121.317 129.904 121.317 129.904C121.383 129.992 121.604 130.521 121.118 132.635C120.698 134.441 119.747 135.851 118.62 137.481C118.244 138.031 117.847 138.604 117.471 139.199C116.896 140.102 115.835 141.775 116.012 143.736C116.167 145.454 117.117 146.621 117.891 147.568C118.09 147.832 118.311 148.075 118.488 148.361C119.394 149.727 120.212 150.96 120.875 152.281C122.51 155.585 123.461 158.25 123.947 160.893C124.477 163.734 125.03 167.06 124.986 170.298C124.897 177.368 123.217 184.064 121.427 190.275C121.339 190.561 121.228 190.781 121.073 190.979C120.543 191.552 119.747 191.64 119.084 191.486C118.687 191.398 118.355 191.156 118.112 190.781C117.825 190.319 117.736 189.724 117.869 189.173C118.178 187.852 118.532 186.53 118.863 185.231C119.637 182.302 120.433 179.284 120.852 176.157C121.162 173.954 121.162 171.818 121.162 169.747V169.439C121.162 168.36 120.344 167.457 119.283 167.324C118.465 167.236 117.692 167.611 117.272 168.272C117.117 168.492 116.985 168.756 116.918 169.042C116.83 169.483 116.72 169.901 116.631 170.342C116.344 171.686 116.079 172.941 115.659 174.108C113.802 179.284 111.128 184.526 107.238 190.649C106.619 191.574 105.624 191.838 104.586 191.288C104.099 191.023 103.9 190.627 103.812 190.319C103.657 189.812 103.724 189.239 103.989 188.755C104.674 187.521 105.403 186.31 106.111 185.099C107.724 182.346 109.404 179.526 110.73 176.443C111.901 173.734 112.763 170.804 113.382 167.479L113.493 166.862C114.001 164.131 114.598 161.025 113.183 157.92C112.255 155.894 110.708 154.418 109.337 153.096C108.321 152.127 107.348 151.202 106.729 150.167C104.983 147.238 104.409 144.749 104.983 142.568C105.116 142.062 105.293 141.665 105.514 141.335C106.243 140.366 107.525 140.057 110.001 139.595C113.095 139 115.813 137.26 117.979 134.529C118.709 133.626 119.372 132.635 119.968 131.512" fill="#B6CB2A"/>
<path d="M96.9171 132.634C97.7348 131.842 97.7791 130.542 97.0056 129.705C96.232 128.846 94.9058 128.78 94.0439 129.529C93.425 130.058 83.7445 137.48 77.3791 142.348C77.1802 142.502 77.0255 142.678 76.9149 142.854C76.5171 143.405 76.3845 144.11 76.6055 144.792L79.0589 151.906C79.3462 152.721 80.0977 153.294 80.9817 153.338C81.0038 153.338 81.048 153.338 81.0701 153.338C81.7332 153.338 82.3299 153.03 82.7277 152.545C82.8603 152.391 82.993 152.215 83.0814 152.017L86.3082 144.748C86.7945 143.669 86.3082 142.436 85.2253 141.951C85.159 141.929 85.0926 141.907 85.0263 141.863C96.4971 133.075 96.7846 132.811 96.873 132.723C96.8951 132.723 96.895 132.679 96.9171 132.657M81.2027 144.792C81.4016 144.638 81.6227 144.484 81.8216 144.33L81.3796 145.321L81.2027 144.814V144.792Z" fill="#B6CB2A"/>
<path d="M148.081 106.6C148.081 103.429 145.495 100.852 142.29 100.852C139.085 100.852 136.521 103.429 136.521 106.6C136.521 109.772 139.107 112.371 142.29 112.371C145.473 112.371 148.081 109.794 148.081 106.6ZM140.787 106.6C140.787 105.763 141.472 105.081 142.312 105.081C143.152 105.081 143.837 105.763 143.837 106.6C143.837 107.437 143.152 108.12 142.312 108.12C141.472 108.12 140.787 107.437 140.787 106.6Z" fill="#B6CB2A"/>
<path d="M106.464 131.974C111.525 131.974 115.636 127.878 115.636 122.834C115.636 117.79 111.525 113.694 106.464 113.694C101.403 113.694 97.292 117.79 97.292 122.834C97.292 127.878 101.403 131.974 106.464 131.974ZM106.464 118.231C109.006 118.231 111.084 120.301 111.084 122.834C111.084 125.367 109.006 127.437 106.464 127.437C103.922 127.437 101.845 125.367 101.845 122.834C101.845 120.301 103.922 118.231 106.464 118.231Z" fill="#B6CB2A"/>
</svg>
