<svg width="223" height="222" viewBox="0 0 223 222" fill="none" xmlns="http://www.w3.org/2000/svg">
<path d="M57.5552 178.416C58.4091 179.795 59.7706 180.761 61.3399 181.129C64.8708 181.933 68.1479 180.071 69.1171 176.692C71.0787 169.934 72.8789 162.579 72.9942 154.695C73.0404 150.925 72.4404 147.178 71.8404 144.006C71.2403 140.834 70.1326 137.708 68.2402 133.892C67.4325 132.26 66.5093 130.835 65.4478 129.272C65.1939 128.882 64.8939 128.514 64.5939 128.146C64.0862 127.525 63.6477 126.974 63.6016 126.514C63.5554 125.962 64.1323 125.043 64.4554 124.537C64.8247 123.963 65.1939 123.411 65.5632 122.859C66.8555 120.951 68.1941 118.998 68.8172 116.308C69.2787 114.263 69.6018 111.918 68.4248 110.079C67.7556 109.045 66.7401 108.355 65.4478 108.079C61.9169 107.321 60.3014 110.355 59.4245 111.964L59.3322 112.125C57.4628 115.596 54.9936 117.641 52.0165 118.216C48.5318 118.883 44.5854 119.641 43.293 124.629C42.393 128.1 43.1315 131.801 45.6008 135.938C46.547 137.547 47.8394 138.765 49.0625 139.938C50.3087 141.133 51.4857 142.259 52.0858 143.593C52.9858 145.569 52.5704 147.753 52.0858 150.304L51.9703 150.971C51.3934 154.166 50.5856 156.832 49.501 159.384C48.2317 162.326 46.6394 165.038 44.9316 167.912C44.1701 169.199 43.4084 170.509 42.6469 171.819C41.793 173.359 41.5853 175.175 42.0699 176.853C42.5315 178.439 43.5931 179.749 45.0701 180.531C46.1086 181.083 47.1933 181.358 48.2548 181.358C50.4011 181.358 52.455 180.278 53.7012 178.301C54.7858 176.6 55.7782 174.945 56.7013 173.336C56.7013 173.359 56.7013 173.382 56.7013 173.405C56.2859 175.129 56.5859 176.968 57.509 178.439M49.9626 175.934C49.3164 176.945 48.2548 177.221 47.1702 176.646C46.6625 176.37 46.4547 175.957 46.3624 175.635C46.2009 175.106 46.2701 174.509 46.547 174.003C47.2624 172.716 48.0241 171.451 48.7625 170.187C50.4703 167.314 52.2242 164.372 53.5858 161.154C54.8089 158.326 55.7089 155.269 56.3551 151.798L56.4705 151.155C57.0013 148.305 57.6244 145.064 56.1474 141.823C55.1781 139.708 53.5627 138.168 52.1319 136.789C51.0703 135.777 50.0549 134.812 49.4087 133.732C47.5856 130.674 46.9855 128.077 47.5856 125.801C48.1394 123.641 49.3856 123.296 52.8704 122.629C57.1398 121.802 60.7168 118.929 63.2323 114.285L63.3246 114.125C63.6016 113.596 64.1554 112.585 64.4785 112.47C64.5939 112.493 64.64 112.516 64.64 112.516C64.7093 112.608 64.94 113.159 64.4323 115.366C63.9938 117.251 63.0016 118.722 61.8246 120.423C61.4323 121.02 61.0168 121.595 60.6245 122.239C59.7937 123.549 58.9398 125.089 59.1014 126.974C59.2629 128.767 60.2553 130.008 61.063 130.973C61.2938 131.249 61.5014 131.502 61.6861 131.801C62.6553 133.226 63.4862 134.513 64.1785 135.892C65.8863 139.34 66.8786 142.121 67.3863 144.88C67.9632 147.983 68.5171 151.339 68.4709 154.695C68.3556 162.073 66.6248 169.061 64.7555 175.543C64.3631 176.876 63.163 177.083 62.263 176.876C61.8245 176.784 61.5015 176.531 61.2476 176.141C60.9476 175.658 60.8553 175.037 60.9938 174.463C61.3168 173.083 61.6861 171.704 62.0323 170.348C62.84 167.291 63.6477 164.142 64.1324 160.878C64.4555 158.579 64.4554 156.35 64.4554 154.189V153.867C64.4554 152.741 63.6016 151.798 62.4708 151.661C61.34 151.523 60.3014 152.258 60.0476 153.362C59.9552 153.798 59.8398 154.258 59.7475 154.695C59.4475 156.097 59.1706 157.407 58.7321 158.648C56.7705 164.05 53.9781 169.567 49.9164 175.957" fill="#68B685"/>
<path d="M39.2098 112.264C38.4021 111.367 37.0174 111.298 36.1174 112.08C35.4712 112.632 25.3631 120.378 18.7167 125.458C17.9551 126.032 17.6551 127.044 17.9782 127.94L20.5398 135.365C20.8398 136.238 21.6245 136.813 22.5476 136.859C22.5707 136.859 22.6168 136.859 22.6399 136.859C23.5169 136.859 24.3246 136.353 24.6708 135.548L28.0401 127.963C28.5478 126.837 28.0401 125.527 26.9093 125.044C26.817 125.021 26.7478 124.975 26.6554 124.952C38.7251 115.712 39.0021 115.436 39.1174 115.344C39.9713 114.516 40.0175 113.16 39.2098 112.287M22.8937 128.607L22.6861 128.009C22.9399 127.825 23.1707 127.641 23.4015 127.457L22.8937 128.607Z" fill="#68B685"/>
<path d="M112.066 153.683C112.92 155.062 114.282 156.028 115.851 156.395C119.382 157.2 122.659 155.338 123.628 151.959C125.59 145.201 127.39 137.846 127.505 129.962C127.551 126.192 126.951 122.445 126.351 119.273C125.751 116.101 124.644 112.975 122.751 109.159C121.944 107.527 120.997 106.102 119.959 104.539C119.705 104.148 119.405 103.781 119.105 103.413C118.597 102.792 118.159 102.241 118.113 101.781C118.066 101.229 118.643 100.31 118.967 99.8041C119.336 99.2294 119.705 98.6778 120.074 98.1491C121.367 96.2413 122.705 94.2875 123.328 91.5752C123.79 89.5294 124.113 87.1848 122.936 85.3459C122.267 84.3116 121.251 83.622 119.959 83.3462C116.451 82.5877 114.813 85.6218 113.936 87.2308L113.843 87.3917C111.974 90.8626 109.505 92.9313 106.528 93.483C103.043 94.1496 99.0966 94.9081 97.8042 99.8961C96.9042 103.39 97.6426 107.068 100.112 111.205C101.058 112.814 102.35 114.032 103.597 115.205C104.843 116.4 106.02 117.526 106.62 118.859C107.52 120.836 107.104 123.02 106.62 125.571L106.505 126.238C105.928 129.433 105.12 132.099 104.035 134.651C102.766 137.593 101.174 140.305 99.4658 143.178C98.7042 144.466 97.9426 145.776 97.181 147.086C96.3272 148.603 96.1195 150.442 96.6041 152.12C97.0657 153.706 98.1273 155.016 99.6043 155.798C100.643 156.349 101.727 156.602 102.789 156.602C104.935 156.602 106.989 155.522 108.235 153.545C109.32 151.844 110.312 150.189 111.235 148.58C111.235 148.58 111.235 148.626 111.235 148.649C110.82 150.373 111.12 152.212 112.043 153.683M104.497 151.178C103.851 152.189 102.789 152.465 101.704 151.89C101.197 151.614 100.989 151.201 100.897 150.879C100.735 150.35 100.804 149.752 101.081 149.247C101.797 147.96 102.558 146.695 103.297 145.431C105.004 142.558 106.758 139.616 108.12 136.398C109.343 133.57 110.243 130.513 110.889 127.042L111.005 126.399C111.535 123.549 112.159 120.308 110.682 117.067C109.712 114.952 108.097 113.412 106.666 112.033C105.604 111.021 104.589 110.056 103.943 108.975C102.12 105.918 101.52 103.321 102.12 101.045C102.674 98.8847 103.92 98.5399 107.405 97.8733C111.674 97.0458 115.251 94.1725 117.766 89.5294L117.859 89.3685C118.136 88.8398 118.69 87.8284 119.013 87.7135C119.128 87.7365 119.174 87.7595 119.174 87.7595C119.243 87.8515 119.474 88.4031 118.967 90.6097C118.528 92.4946 117.536 93.9657 116.359 95.6667C115.966 96.2413 115.551 96.8389 115.159 97.4596C114.559 98.402 113.451 100.149 113.636 102.195C113.797 103.988 114.789 105.229 115.597 106.194C115.828 106.47 116.036 106.723 116.22 107.022C117.19 108.447 118.02 109.734 118.713 111.113C120.42 114.561 121.413 117.342 121.92 120.101C122.474 123.066 123.051 126.537 123.005 129.916C122.89 137.294 121.159 144.282 119.29 150.764C118.897 152.097 117.697 152.304 116.774 152.097C116.336 152.005 116.013 151.752 115.759 151.361C115.459 150.879 115.366 150.258 115.505 149.684C115.828 148.304 116.197 146.948 116.543 145.592C117.351 142.535 118.182 139.363 118.643 136.099C118.967 133.8 118.967 131.571 118.967 129.387V129.088C118.967 127.962 118.113 127.019 116.982 126.881C115.851 126.744 114.812 127.479 114.559 128.582C114.466 129.019 114.351 129.479 114.259 129.916C113.959 131.318 113.682 132.628 113.22 133.869C111.282 139.294 108.466 144.788 104.404 151.178" fill="#68B685"/>
<path d="M77.033 112.125C77.033 112.125 77.1022 112.125 77.1253 112.125C78.0022 112.125 78.81 111.62 79.1561 110.815L82.5255 103.253C83.0332 102.126 82.5255 100.839 81.3947 100.334C81.3024 100.288 81.2332 100.265 81.1408 100.242C93.2105 91.0012 93.4875 90.7254 93.6029 90.6335C94.4567 89.806 94.5029 88.4498 93.6952 87.5763C92.8875 86.6798 91.5027 86.6109 90.6027 87.3924C89.9565 87.9441 79.8485 95.6904 73.2021 100.77C72.4405 101.345 72.1405 102.333 72.4636 103.253L75.0252 110.677C75.3252 111.551 76.1099 112.125 77.033 112.171M77.9099 102.77L77.4023 103.919L77.1945 103.322C77.4483 103.138 77.6791 102.954 77.9099 102.77Z" fill="#68B685"/>
<path d="M166.579 128.974C167.432 130.353 168.794 131.318 170.363 131.686C173.917 132.49 177.171 130.629 178.141 127.25C180.102 120.492 181.902 113.136 182.018 105.252C182.064 101.482 181.464 97.7357 180.864 94.5636C180.264 91.3916 179.156 88.2655 177.264 84.4499C176.456 82.8179 175.51 81.3927 174.471 79.8297C174.217 79.4389 173.917 79.0712 173.617 78.7034C173.11 78.0828 172.671 77.5311 172.625 77.0714C172.579 76.5198 173.156 75.6003 173.479 75.0946C173.848 74.5199 174.217 73.9683 174.587 73.4166C175.879 71.5088 177.217 69.555 177.841 66.8657C178.302 64.8199 178.625 62.4753 177.448 60.6364C176.802 59.6021 175.764 58.9125 174.471 58.6367C170.94 57.8782 169.325 60.9123 168.448 62.5443L168.356 62.7052C166.486 66.1761 164.017 68.2448 161.04 68.7965C157.555 69.4631 153.609 70.2216 152.316 75.2095C151.416 78.6804 152.155 82.3811 154.624 86.5186C155.57 88.1276 156.863 89.3458 158.086 90.5181C159.332 91.7134 160.509 92.8397 161.109 94.1729C162.009 96.1496 161.594 98.3333 161.109 100.862L160.994 101.528C160.394 104.723 159.609 107.39 158.524 109.941C157.255 112.883 155.663 115.596 153.955 118.469C153.193 119.756 152.432 121.066 151.67 122.377C150.816 123.894 150.609 125.733 151.093 127.411C151.555 128.997 152.616 130.307 154.093 131.088C155.132 131.64 156.217 131.893 157.278 131.893C159.424 131.893 161.478 130.812 162.725 128.836C163.809 127.135 164.802 125.48 165.725 123.871C165.725 123.871 165.725 123.917 165.725 123.94C165.309 125.664 165.609 127.502 166.532 128.974M158.986 126.468C158.34 127.479 157.278 127.755 156.194 127.181C155.686 126.905 155.478 126.491 155.386 126.169C155.224 125.641 155.294 125.043 155.57 124.537C156.286 123.25 157.047 121.986 157.786 120.722C159.494 117.871 161.248 114.906 162.609 111.688C163.809 108.861 164.732 105.804 165.355 102.333L165.471 101.689C166.002 98.839 166.625 95.598 165.148 92.357C164.178 90.2423 162.563 88.7023 161.132 87.3231C160.071 86.3117 159.055 85.3463 158.409 84.2659C156.586 81.2088 156.009 78.6115 156.586 76.3358C157.14 74.1752 158.386 73.8304 161.871 73.1638C166.14 72.3363 169.717 69.463 172.233 64.8199L172.325 64.659C172.625 64.1303 173.156 63.1189 173.479 63.004C173.594 63.027 173.64 63.05 173.64 63.05C173.71 63.142 173.94 63.6936 173.433 65.9002C172.994 67.7851 172.002 69.2562 170.848 70.9572C170.456 71.5548 170.04 72.1524 169.648 72.773C169.048 73.7154 167.94 75.4623 168.125 77.5081C168.286 79.301 169.279 80.5423 170.086 81.5077C170.317 81.7835 170.525 82.0363 170.71 82.3351C171.679 83.7603 172.51 85.0475 173.202 86.4266C174.91 89.8745 175.902 92.6558 176.41 95.4141C176.987 98.5172 177.541 101.873 177.494 105.229C177.379 112.608 175.648 119.595 173.779 126.077C173.386 127.41 172.186 127.617 171.263 127.411C170.825 127.319 170.502 127.066 170.248 126.675C169.948 126.192 169.856 125.572 169.994 124.997C170.317 123.618 170.686 122.262 171.033 120.905C171.84 117.848 172.671 114.676 173.133 111.412C173.456 109.114 173.456 106.884 173.456 104.7V104.402C173.456 103.275 172.602 102.333 171.471 102.195C170.34 102.057 169.302 102.793 169.048 103.896C168.956 104.356 168.84 104.792 168.748 105.252C168.448 106.654 168.171 107.964 167.732 109.183C165.794 114.584 162.978 120.101 158.917 126.491" fill="#68B685"/>
<path d="M145.138 62.6139C144.492 63.1655 134.384 70.9118 127.738 75.9917C126.976 76.5663 126.676 77.5777 126.976 78.4741L129.538 85.8986C129.838 86.7721 130.622 87.3467 131.546 87.3927C131.569 87.3927 131.615 87.3927 131.638 87.3927C132.515 87.3927 133.322 86.887 133.669 86.0825L137.038 78.5201C137.546 77.3938 137.038 76.0836 135.907 75.6009C135.815 75.5779 135.746 75.5319 135.653 75.5089C147.723 66.2686 148.023 65.9928 148.115 65.9008C148.992 65.0504 149.062 63.6252 148.208 62.7288C147.354 61.8553 145.992 61.7863 145.092 62.6368M131.869 79.1407L131.661 78.5431C131.915 78.3592 132.146 78.1753 132.376 77.9914L131.869 79.1407Z" fill="#68B685"/>
<path d="M125.521 199.839C128.729 199.839 131.314 197.242 131.314 194.07C131.314 190.898 128.706 188.301 125.521 188.301C122.336 188.301 119.729 190.898 119.729 194.07C119.729 197.242 122.336 199.839 125.521 199.839ZM125.521 192.714C126.259 192.714 126.883 193.311 126.883 194.07C126.883 194.829 126.283 195.426 125.521 195.426C124.759 195.426 124.159 194.829 124.159 194.07C124.159 193.311 124.759 192.714 125.521 192.714Z" fill="#68B685"/>
<path d="M76.6165 139.916C76.9396 139.916 77.2396 139.848 77.5627 139.71L101.333 128.676C102.441 128.171 102.925 126.837 102.418 125.734C101.887 124.631 100.571 124.148 99.4636 124.654L75.6934 135.687C74.5856 136.193 74.101 137.526 74.6087 138.629C74.978 139.434 75.7857 139.916 76.6165 139.916" fill="#68B685"/>
<path d="M157.506 100.15C156.975 99.0471 155.66 98.5644 154.552 99.0701L128.682 111.092C127.574 111.62 127.089 112.931 127.597 114.034C127.966 114.838 128.774 115.321 129.605 115.321C129.928 115.321 130.228 115.252 130.551 115.114L156.421 103.093C157.529 102.587 158.014 101.254 157.506 100.15" fill="#68B685"/>
<path d="M83.1494 174.923H94.7806C96.95 174.923 98.3115 172.579 97.2269 170.717L91.4112 160.672C90.3266 158.787 87.6034 158.787 86.5188 160.672L80.7032 170.717C79.6185 172.602 80.9801 174.923 83.1494 174.923" fill="#68B685"/>
<path d="M137.472 149.753H149.103C151.272 149.753 152.634 147.408 151.549 145.547L145.734 135.502C144.649 133.617 141.926 133.617 140.841 135.502L135.025 145.547C133.941 147.431 135.302 149.753 137.472 149.753" fill="#68B685"/>
<path d="M202.067 159.797C198.859 159.797 196.274 162.395 196.274 165.567C196.274 168.739 198.882 171.336 202.067 171.336C205.252 171.336 207.86 168.739 207.86 165.567C207.86 162.395 205.252 159.797 202.067 159.797ZM202.067 166.923C201.328 166.923 200.705 166.325 200.705 165.567C200.705 164.808 201.305 164.21 202.067 164.21C202.829 164.21 203.429 164.808 203.429 165.567C203.429 166.325 202.829 166.923 202.067 166.923Z" fill="#68B685"/>
<path d="M179.661 23.6755C179.43 23.3537 179.107 23.1238 178.761 22.9859C159.998 8.59669 136.551 0 111.097 0C49.848 0 0 49.6495 0 110.654C0 171.659 49.825 221.308 111.097 221.308C144.467 221.308 175.761 206.574 196.969 180.876C197.754 179.934 197.615 178.531 196.669 177.75C195.723 176.968 194.315 177.106 193.53 178.049C173.176 202.713 143.129 216.872 111.097 216.872C72.7643 216.872 39.1169 196.621 20.3084 166.326L48.3018 153.316C49.4096 152.81 49.8942 151.477 49.3865 150.374C48.8557 149.27 47.5403 148.788 46.4325 149.293L18.0469 162.464C9.39269 147.133 4.454 129.457 4.454 110.631C4.454 109.735 4.50015 108.838 4.52323 107.942L177.514 27.606C192.33 39.3978 203.939 55.0053 210.793 72.9572L183.792 85.5075C182.684 86.0362 182.199 87.3464 182.707 88.4497C183.076 89.2542 183.884 89.7369 184.715 89.7369C185.038 89.7369 185.338 89.668 185.661 89.5301L212.293 77.1636C215.824 87.6912 217.739 98.9543 217.739 110.631C217.739 124.882 214.97 138.697 209.477 151.707C208.993 152.833 209.523 154.143 210.677 154.603C211.808 155.086 213.1 154.534 213.585 153.408C219.308 139.846 222.193 125.457 222.193 110.608C222.193 75.3478 205.531 43.926 179.661 23.6525M4.75402 102.931C8.72341 47.9486 54.879 4.39031 111.097 4.39031C134.382 4.39031 155.937 11.8837 173.499 24.549L4.75402 102.908V102.931Z" fill="#68B685"/>
<path d="M205.899 120.378L200.083 110.333C198.998 108.448 196.275 108.448 195.191 110.333L189.375 120.378C188.29 122.263 189.652 124.585 191.821 124.585H203.453C205.622 124.585 206.983 122.24 205.899 120.378" fill="#68B685"/>
<path d="M158.151 65.0499C163.367 65.0499 167.636 60.8205 167.636 55.6027C167.636 50.3849 163.39 46.1555 158.151 46.1555C152.912 46.1555 148.666 50.3849 148.666 55.6027C148.666 60.8205 152.912 65.0499 158.151 65.0499ZM158.151 51.3273C160.528 51.3273 162.443 53.2581 162.443 55.6027C162.443 57.9472 160.505 59.8781 158.151 59.8781C155.797 59.8781 153.859 57.9702 153.859 55.6027C153.859 53.2351 155.797 51.3273 158.151 51.3273Z" fill="#68B685"/>
<path d="M103.645 89.7592C108.861 89.7592 113.13 85.5297 113.13 80.3119C113.13 75.0941 108.884 70.8647 103.645 70.8647C98.4065 70.8647 94.1602 75.0941 94.1602 80.3119C94.1602 85.5297 98.4065 89.7592 103.645 89.7592ZM103.645 76.0366C106.022 76.0366 107.938 77.9674 107.938 80.3119C107.938 82.6565 105.999 84.5873 103.645 84.5873C101.291 84.5873 99.3527 82.6795 99.3527 80.3119C99.3527 77.9444 101.268 76.0366 103.645 76.0366Z" fill="#68B685"/>
<path d="M49.1315 114.493C54.3471 114.493 58.6164 110.263 58.6164 105.045C58.6164 99.8275 54.3702 95.5981 49.1315 95.5981C43.8928 95.5981 39.6465 99.8275 39.6465 105.045C39.6465 110.263 43.8928 114.493 49.1315 114.493ZM49.1315 100.77C51.5085 100.77 53.4239 102.701 53.4239 105.045C53.4239 107.39 51.5085 109.321 49.1315 109.321C46.7545 109.321 44.839 107.413 44.839 105.045C44.839 102.678 46.7776 100.77 49.1315 100.77Z" fill="#68B685"/>
</svg>
