<svg width="19" height="19" viewBox="0 0 19 19" fill="none" xmlns="http://www.w3.org/2000/svg">
<g clip-path="url(#clip0_10484_2656)">
<path d="M13.7653 0H5.24008C2.34269 0 0 2.34269 0 5.24008V13.7653C0 16.6573 2.34269 19.0054 5.24008 19.0054H13.7653C16.6573 19.0054 19.0054 16.6627 19.0054 13.7653V5.24008C19.0054 2.34807 16.6627 0 13.7653 0ZM17.4651 13.7438C17.4651 15.801 15.7956 17.4651 13.7438 17.4651H5.26162C3.20437 17.4651 1.53486 15.7956 1.53486 13.7438V5.26162C1.53486 3.20437 3.20437 1.54025 5.26162 1.54025H13.7438C15.801 1.54025 17.4651 3.20975 17.4651 5.26162V13.7438Z" fill="#FAFAFA"/>
<path d="M9.50069 4.49146C6.73794 4.49146 4.49219 6.73182 4.49219 9.49996C4.49219 12.2681 6.73255 14.5085 9.50069 14.5085C12.2688 14.5085 14.5092 12.2681 14.5092 9.49996C14.5092 6.73182 12.2688 4.49146 9.50069 4.49146ZM9.50069 12.7636C7.69655 12.7636 6.23709 11.2987 6.23709 9.49996C6.23709 7.70121 7.69655 6.23635 9.50069 6.23635C11.3048 6.23635 12.7643 7.70121 12.7643 9.49996C12.7643 11.2987 11.2994 12.7636 9.50069 12.7636Z" fill="#FAFAFA"/>
<path d="M15.8019 4.32454C15.8019 4.94387 15.3011 5.45011 14.6763 5.45011C14.0516 5.45011 13.5508 4.94926 13.5508 4.32454C13.5508 3.69982 14.0516 3.19897 14.6763 3.19897C15.3011 3.19897 15.8019 3.69982 15.8019 4.32454Z" fill="#FAFAFA"/>
</g>
<defs>
<clipPath id="clip0_10484_2656">
<rect width="19" height="19" fill="white"/>
</clipPath>
</defs>
</svg>
