<svg width="18" height="18" viewBox="0 0 18 18" fill="none" xmlns="http://www.w3.org/2000/svg">
<g clip-path="url(#clip0_10484_2652)">
<path d="M16.701 16.1637L10.6701 7.59446L9.99742 6.61965L5.68299 0.498741L5.33505 0H0L1.29897 1.83627L7.02835 9.97481L7.70103 10.9496L12.317 17.5013L12.6649 18H17.9536L16.6546 16.1637H16.701ZM13.3144 16.8212L8.53608 10.0202L7.8634 9.04534L2.29639 1.17884H4.68557L9.18557 7.54912L9.85825 8.52393L15.7036 16.8212H13.3144Z" fill="white"/>
<path d="M7.8634 9.06799L8.53608 10.0201L7.72423 10.9496L1.53093 18H0L7.05155 9.97479L7.8634 9.06799Z" fill="white"/>
<path d="M17.3505 0L10.6701 7.59446L9.85823 8.52393L9.18555 7.54912L9.9974 6.64232L14.5206 1.47355L15.8196 0H17.3505Z" fill="white"/>
</g>
<defs>
<clipPath id="clip0_10484_2652">
<rect width="18" height="18" fill="white"/>
</clipPath>
</defs>
</svg>
