<svg width="216" height="61" viewBox="0 0 216 61" fill="none" xmlns="http://www.w3.org/2000/svg">
<path d="M77.0401 15.5726C77.0081 18.4632 76.7708 19.9085 76.0075 21.4113C74.3783 24.7176 71.3315 26.5466 67.4253 26.5466C61.4473 26.5466 57.0664 22.2683 57.0664 16.372C57.0664 10.4757 61.4729 5.98633 67.5408 5.98633C71.2097 5.98633 74.1409 7.57871 76.001 10.6164L72.6272 12.4134C71.447 10.4693 69.728 9.49085 67.5087 9.49085C63.782 9.49085 61.0304 12.4134 61.0304 16.3656C61.0304 20.3178 63.782 23.0613 67.483 23.0613C70.2924 23.0613 72.3642 21.4113 72.6593 18.9044H68.0154V15.5726H77.0401Z" fill="white"/>
<path d="M100.709 16.2825C100.709 22.0956 96.0656 26.5466 90.0556 26.5466C84.0455 26.5466 79.6133 22.0317 79.6133 16.1354C79.6133 10.2391 84.3534 5.98633 90.2095 5.98633C96.0656 5.98633 100.716 10.5013 100.716 16.2825H100.709ZM83.5772 16.1929C83.5772 19.998 86.5085 23.0357 90.1774 23.0357C93.8463 23.0357 96.7455 19.998 96.7455 16.2505C96.7455 12.5029 93.8143 9.49724 90.1453 9.49724C86.4764 9.49724 83.5772 12.5349 83.5772 16.1929Z" fill="white"/>
<path d="M108.112 22.7736H114.179V26.1055H104.27V6.42773H108.118V22.7736H108.112Z" fill="white"/>
<path d="M120.682 9.75959V14.1274H126.866V17.4593H120.682V26.1055H116.834V6.42773H127.276V9.75959H120.676H120.682Z" fill="white"/>
<path d="M146.601 10.8852C145.569 9.73413 144.651 9.29286 143.407 9.29286C141.842 9.29286 140.623 10.2649 140.623 11.4736C140.623 12.5352 141.303 13.098 143.612 13.9549C145.774 14.7543 146.659 15.1636 147.544 15.931C148.699 16.903 149.289 18.3228 149.289 20.0622C149.289 23.9249 146.505 26.5533 142.426 26.5533C139.559 26.5533 137.429 25.3702 135.652 22.8057L138.135 20.414C139.02 22.0959 140.501 23.0423 142.278 23.0423C144.055 23.0423 145.325 21.8912 145.325 20.2669C145.325 19.4675 144.972 18.7896 144.26 18.2908C143.875 18.0222 143.106 17.7024 141.508 17.1141C137.955 15.8159 136.659 14.4026 136.659 11.8061C136.659 8.49987 139.264 6.08252 142.811 6.08252C144.972 6.08252 146.954 6.81796 148.609 8.26325L146.595 10.8916L146.601 10.8852Z" fill="white"/>
<path d="M156.126 21.9165L154.349 26.0734H150.264L158.82 5.98633H161.719L170.006 26.0734H165.895L164.208 21.9165H156.133H156.126ZM160.238 11.7419L157.371 18.8213H162.989L160.238 11.7419Z" fill="white"/>
<path d="M175.51 17.67C175.51 19.6781 175.625 20.324 176.132 21.181C176.786 22.3001 178.114 23.01 179.595 23.01C181.077 23.01 182.405 22.3001 183.059 21.181C183.559 20.324 183.681 19.6781 183.681 17.67V6.40186H187.53V18.4375C187.53 20.7397 187.087 22.3577 186.08 23.6878C184.72 25.4593 182.296 26.5209 179.602 26.5209C176.908 26.5209 174.483 25.4593 173.123 23.6878C172.116 22.3577 171.674 20.7397 171.674 18.4375V6.40186H175.522V17.67H175.51Z" fill="white"/>
<path d="M192.053 6.40186H197.704C200.603 6.40186 202.912 7.13729 204.772 8.67212C206.991 10.4691 208.293 13.2766 208.293 16.2247C208.293 19.1729 206.959 21.9484 204.714 23.8029C202.822 25.3953 200.661 26.0732 197.672 26.0732H192.053V6.40186ZM196.934 22.7414C199.416 22.7414 200.988 22.2681 202.2 21.1746C203.534 19.9979 204.329 18.1049 204.329 16.2183C204.329 14.3318 203.528 12.5028 202.2 11.3197C200.93 10.1686 199.416 9.72731 196.934 9.72731H195.901V22.7414H196.934Z" fill="white"/>
<path d="M215.694 26.0732H211.846V6.40186H215.694V26.0732Z" fill="white"/>
<path d="M183.644 40.9356C183.766 41.0571 183.907 41.153 184.074 41.2234C184.241 41.2937 184.414 41.3257 184.594 41.3257C184.786 41.3257 184.966 41.2937 185.126 41.2234C185.293 41.153 185.434 41.0571 185.556 40.9356C185.678 40.8141 185.774 40.6734 185.851 40.5071C185.928 40.3408 185.96 40.1682 185.96 39.9763C185.96 39.7973 185.921 39.6246 185.851 39.4583C185.78 39.292 185.678 39.1514 185.556 39.0298C185.434 38.9083 185.286 38.8124 185.126 38.7357C184.959 38.6589 184.78 38.627 184.594 38.627C184.222 38.627 183.901 38.7612 183.638 39.0234C183.375 39.2856 183.24 39.6054 183.24 39.9763C183.24 40.1682 183.279 40.3472 183.349 40.5071C183.426 40.6734 183.522 40.8141 183.644 40.9356Z" fill="white"/>
<path d="M195.138 32.7947C194.798 33.172 194.554 33.4726 194.4 33.6836C194.247 33.8946 193.951 34.144 193.496 34.4318C193.368 34.5086 193.066 34.6876 192.592 34.9626V35.1417C192.97 35.3527 193.252 35.6341 193.432 35.973C193.74 36.5486 193.894 37.4375 193.894 38.6398V47.5802H188.025C188.07 47.4331 188.108 47.2284 188.134 46.9726C188.159 46.7168 188.166 46.4866 188.166 46.282C188.166 45.4314 187.807 44.6832 187.095 44.0437C186.383 43.4042 185.549 43.0844 184.6 43.0844C183.593 43.0844 182.746 43.4042 182.053 44.0373C181.36 44.6704 181.014 45.4186 181.014 46.282C181.014 46.493 181.027 46.7232 181.053 46.9726C181.078 47.222 181.11 47.4267 181.162 47.5802H172.233C171.316 47.5802 170.565 47.4459 169.988 47.1773C169.52 46.9534 169.116 46.5378 168.763 45.9238H168.583C168.352 46.3267 168.186 46.6145 168.07 46.7872C167.762 47.286 167.461 47.6697 167.166 47.9383C166.396 48.6354 165.992 48.9999 165.954 49.0382C165.453 49.4667 165.03 49.7609 164.684 49.9272V50.1894H196.261V31.8418H195.998C195.703 32.1679 195.414 32.4877 195.119 32.8139L195.138 32.7947ZM184.612 47.5546C183.965 47.5546 183.637 47.2412 183.637 46.6081C183.637 45.975 183.965 45.6616 184.612 45.6616C185.26 45.6616 185.562 45.975 185.562 46.6081C185.562 47.2412 185.247 47.5546 184.612 47.5546Z" fill="white"/>
<path d="M214.721 40.3538C214.125 39.8422 213.361 39.5864 212.419 39.5864C211.546 39.5864 210.789 39.9318 210.148 40.616C209.507 41.3003 209.186 42.1573 209.186 43.1869C209.186 44.1078 209.436 44.856 209.936 45.4252C210.501 46.0647 211.328 46.3844 212.419 46.3844H213.342V46.621C213.342 46.8832 213.246 47.1071 213.066 47.2925C212.88 47.478 212.656 47.5675 212.393 47.5675H205.626V46.2629C205.626 45.3292 205.28 44.5554 204.593 43.9415C203.939 43.3595 203.163 43.0654 202.278 43.0654C201.393 43.0654 200.597 43.3787 199.975 44.0118C199.295 44.6961 198.955 45.6042 198.955 46.7362C198.955 47.7402 199.173 48.5268 199.609 49.0896C200.155 49.8058 201.046 50.1639 202.284 50.1639H203.233C203.233 51.4046 202.733 52.5621 201.726 53.6301C200.841 54.5766 199.821 55.2353 198.66 55.6062V55.8428H199.847C201.739 55.8428 203.201 55.2672 204.24 54.1161C205.164 53.0929 205.632 51.7691 205.632 50.1639H212.874C213.656 50.1639 214.33 49.8826 214.894 49.3262C215.459 48.7634 215.735 48.0983 215.735 47.3245L215.748 42.8991C215.748 41.7863 215.408 40.9358 214.728 40.3538H214.721ZM202.278 47.5611C201.643 47.5611 201.328 47.2478 201.328 46.6147C201.328 45.9815 201.643 45.6682 202.278 45.6682C202.913 45.6682 203.227 45.9815 203.227 46.6147C203.227 47.2478 202.913 47.5611 202.278 47.5611ZM212.419 43.8456C211.784 43.8456 211.469 43.5322 211.469 42.8991C211.469 42.266 211.784 41.9526 212.419 41.9526C213.054 41.9526 213.368 42.266 213.368 42.8991C213.368 43.5322 213.054 43.8456 212.419 43.8456Z" fill="white"/>
<path d="M209.525 38.2305C209.647 38.352 209.788 38.4479 209.955 38.5183C210.122 38.5886 210.295 38.6206 210.474 38.6206C210.667 38.6206 210.847 38.5886 211.007 38.5183C211.174 38.4479 211.315 38.352 211.437 38.2305C211.558 38.109 211.655 37.9683 211.732 37.802C211.809 37.6358 211.841 37.4631 211.841 37.2712C211.841 37.0922 211.802 36.9195 211.732 36.7532C211.661 36.587 211.558 36.4463 211.437 36.3248C211.315 36.2033 211.167 36.1073 211.007 36.0306C210.84 35.9538 210.661 35.9219 210.474 35.9219C210.102 35.9219 209.782 36.0562 209.519 36.3184C209.256 36.5806 209.121 36.9003 209.121 37.2712C209.121 37.4631 209.16 37.6422 209.23 37.802C209.307 37.9683 209.403 38.109 209.525 38.2305Z" fill="white"/>
<path d="M212.849 38.2305C212.971 38.352 213.112 38.4479 213.279 38.5183C213.446 38.5886 213.619 38.6206 213.799 38.6206C213.991 38.6206 214.171 38.5886 214.331 38.5183C214.498 38.4479 214.639 38.352 214.761 38.2305C214.883 38.109 214.979 37.9683 215.056 37.802C215.133 37.6358 215.165 37.4631 215.165 37.2712C215.165 37.0922 215.126 36.9195 215.056 36.7532C214.979 36.587 214.883 36.4463 214.761 36.3248C214.639 36.2033 214.491 36.1073 214.331 36.0306C214.164 35.9538 213.985 35.9219 213.799 35.9219C213.427 35.9219 213.106 36.0562 212.843 36.3184C212.574 36.5806 212.445 36.9003 212.445 37.2712C212.445 37.4631 212.484 37.6422 212.554 37.802C212.631 37.9683 212.728 38.109 212.849 38.2305Z" fill="white"/>
<path d="M57.951 38.5183C58.1178 38.5886 58.291 38.6206 58.4706 38.6206C58.663 38.6206 58.8426 38.5886 59.003 38.5183C59.1697 38.4479 59.3108 38.352 59.4327 38.2305C59.5546 38.109 59.6508 37.9683 59.7278 37.802C59.8047 37.6358 59.8368 37.4631 59.8368 37.2712C59.8368 37.0922 59.7983 36.9195 59.7278 36.7532C59.6572 36.587 59.5546 36.4463 59.4327 36.3248C59.3108 36.2033 59.1633 36.1073 59.003 36.0306C58.8362 35.9538 58.6566 35.9219 58.4706 35.9219C58.0986 35.9219 57.7778 36.0562 57.5149 36.3184C57.2519 36.5806 57.1172 36.9003 57.1172 37.2712C57.1172 37.4631 57.1557 37.6422 57.2262 37.802C57.3032 37.9683 57.3994 38.109 57.5213 38.2305C57.6431 38.352 57.7843 38.4479 57.951 38.5183Z" fill="white"/>
<path d="M60.8377 38.2369C60.9596 38.3584 61.1007 38.4543 61.2674 38.5246C61.4342 38.595 61.6074 38.627 61.787 38.627C61.9794 38.627 62.159 38.595 62.3194 38.5246C62.4861 38.4543 62.6272 38.3584 62.7491 38.2369C62.871 38.1154 62.9672 37.9747 63.0442 37.8084C63.1211 37.6421 63.1532 37.4694 63.1532 37.2776C63.1532 37.0985 63.1147 36.9259 63.0442 36.7596C62.9672 36.5933 62.871 36.4526 62.7491 36.3311C62.6272 36.2096 62.4797 36.1137 62.3194 36.0369C62.1526 35.9602 61.973 35.9282 61.787 35.9282C61.415 35.9282 61.0943 36.0625 60.8313 36.3247C60.5619 36.5869 60.4336 36.9067 60.4336 37.2776C60.4336 37.4694 60.4721 37.6485 60.5426 37.8084C60.6196 37.9747 60.7158 38.1154 60.8377 38.2369Z" fill="white"/>
<path d="M70.2999 51.9415C70.178 51.82 70.0369 51.724 69.8701 51.6473C69.7034 51.5705 69.5302 51.5386 69.3378 51.5386C68.9657 51.5386 68.645 51.6729 68.3821 51.9351C68.1127 52.2037 67.9844 52.517 67.9844 52.8879C67.9844 53.0798 68.0229 53.2589 68.0934 53.4187C68.1704 53.585 68.2666 53.7257 68.3885 53.8472C68.5103 53.9687 68.6515 54.0646 68.8182 54.135C68.985 54.2053 69.1582 54.2373 69.3378 54.2373C69.5302 54.2373 69.7098 54.2053 69.8701 54.135C70.0369 54.0646 70.178 53.9687 70.2999 53.8472C70.4218 53.7257 70.518 53.585 70.5949 53.4187C70.6719 53.2525 70.704 53.0798 70.704 52.8879C70.704 52.7089 70.6655 52.5362 70.5949 52.3699C70.518 52.2037 70.4218 52.063 70.2999 51.9415Z" fill="white"/>
<path d="M66.9835 51.9415C66.8616 51.82 66.7141 51.724 66.5537 51.6473C66.387 51.5705 66.2138 51.5386 66.0214 51.5386C65.6493 51.5386 65.3286 51.6729 65.0656 51.9351C64.7963 52.2037 64.668 52.517 64.668 52.8879C64.668 53.0798 64.7065 53.2589 64.777 53.4187C64.8476 53.5786 64.9502 53.7257 65.0721 53.8472C65.1939 53.9687 65.335 54.0646 65.5018 54.135C65.6686 54.2053 65.8418 54.2373 66.0214 54.2373C66.2138 54.2373 66.3934 54.2053 66.5537 54.135C66.7205 54.0646 66.8616 53.9687 66.9835 53.8472C67.1054 53.7257 67.2016 53.585 67.2785 53.4187C67.3555 53.2525 67.3876 53.0798 67.3876 52.8879C67.3876 52.7089 67.3491 52.5362 67.2785 52.3699C67.2016 52.2037 67.1054 52.063 66.9835 51.9415Z" fill="white"/>
<path d="M71.851 50.1764V40.328H71.479C71.0364 40.6541 70.6901 40.9675 70.4399 41.2617C70.1897 41.5558 69.9524 41.8372 69.7408 42.1186C69.5227 42.3936 69.2918 42.675 69.048 42.95C68.8043 43.225 68.4643 43.5127 68.0282 43.8133V44.2738C68.4579 44.6319 68.7722 45.0092 68.9518 45.3993C69.1378 45.7894 69.2276 46.1539 69.2276 46.4929V47.5672H64.7377C64.8532 47.2091 64.9045 46.851 64.9045 46.4929V38.0449H64.5324C64.0899 38.3711 63.7435 38.6844 63.4933 38.9786C63.2432 39.2728 63.0059 39.5542 62.7942 39.8356C62.5761 40.1105 62.3452 40.3919 62.1015 40.6669C61.8577 40.9419 61.5178 41.2297 61.0816 41.5303V41.9907C61.4216 42.2721 61.6845 42.5663 61.8706 42.8732C61.6525 42.8349 61.4344 42.8093 61.2035 42.8093C60.6904 42.8093 60.2093 42.9052 59.7603 43.1035C59.3113 43.2953 58.92 43.5639 58.5865 43.8964C58.253 44.229 57.99 44.6191 57.7911 45.0668C57.5923 45.5144 57.4961 45.994 57.4961 46.5057V50.1956H71.8446L71.851 50.1764ZM61.0752 47.5672C60.3376 47.5672 59.9655 47.2091 59.9655 46.4865C59.9655 45.7638 60.3376 45.4057 61.0752 45.4057C61.8128 45.4057 62.1592 45.7638 62.1592 46.4865C62.1592 47.2091 61.8 47.5672 61.0752 47.5672Z" fill="white"/>
<path d="M112.734 44.6892C112.439 44.3951 112.099 44.1648 111.708 43.9986C111.317 43.8323 110.9 43.7428 110.457 43.7428H84.5506C84.2107 43.7428 83.8451 43.6532 83.4538 43.4678C83.0625 43.2823 82.6905 42.9753 82.3249 42.5469H81.8631C81.5616 42.9753 81.2794 43.3143 80.9972 43.5637C80.7214 43.8067 80.4391 44.0433 80.1633 44.2544C79.8875 44.4718 79.5989 44.702 79.3038 44.9514C79.0088 45.2008 78.7009 45.5462 78.3674 45.9874V46.3584H110.451C110.618 46.3584 110.753 46.4159 110.868 46.5374C110.983 46.6525 111.035 46.7996 111.035 46.9595V47.5606H79.3551C79.0152 47.5606 78.6496 47.4711 78.2583 47.2857C77.8671 47.1002 77.4886 46.7932 77.1294 46.3648H76.6676C76.3661 46.7932 76.0839 47.1322 75.8017 47.3816C75.5259 47.6246 75.2437 47.8612 74.9678 48.0722C74.692 48.2833 74.4034 48.5199 74.1083 48.7693C73.8133 49.0187 73.5054 49.3641 73.1719 49.8053V50.1762H113.665V46.9595C113.665 46.5182 113.581 46.1026 113.408 45.7125C113.241 45.3224 113.004 44.9834 112.715 44.6892H112.734Z" fill="white"/>
<path d="M156.794 33.3833C156.544 33.6775 156.306 33.9589 156.095 34.2402C155.877 34.5152 155.646 34.7966 155.402 35.0716C155.158 35.3466 154.818 35.6344 154.382 35.9349V36.3954C154.812 36.7535 155.126 37.1308 155.306 37.5209C155.492 37.911 155.582 38.2756 155.582 38.6145V49.8315C155.582 50.3623 155.543 50.8547 155.46 51.3088C155.376 51.7628 155.242 52.1721 155.049 52.5494C154.857 52.9268 154.6 53.2721 154.267 53.5854C153.94 53.9052 153.529 54.193 153.035 54.4488V55.1075C153.856 55.1075 154.594 54.9796 155.235 54.7238C155.877 54.468 156.415 54.1035 156.858 53.6366C157.294 53.1698 157.628 52.6134 157.859 51.9675C158.09 51.3216 158.205 50.6053 158.205 49.8315V32.4624H157.833C157.39 32.7886 157.044 33.1019 156.794 33.3961V33.3833Z" fill="white"/>
<path d="M153.313 32.4556C152.87 32.7817 152.524 33.0951 152.274 33.3893C152.024 33.6834 151.786 33.9648 151.575 34.2462C151.356 34.5212 151.126 34.8026 150.882 35.0776C150.632 35.3526 150.298 35.6403 149.862 35.9409V36.4014C150.292 36.7595 150.6 37.1368 150.786 37.5269C150.972 37.917 151.061 38.2815 151.061 38.6205V47.5736H147.745V40.3599H147.373C146.931 40.6861 146.584 40.9994 146.334 41.2936C146.084 41.5878 145.847 41.8692 145.635 42.1506C145.417 42.4255 145.186 42.7069 144.942 42.9819C144.699 43.2569 144.359 43.5447 143.922 43.8453V44.3057C144.352 44.6638 144.666 45.0411 144.846 45.4312C145.032 45.8213 145.122 46.1859 145.122 46.5248V47.5864H143.3V40.8651H142.928C142.486 41.1913 142.139 41.5046 141.889 41.7988C141.639 42.093 141.402 42.3744 141.19 42.6494C140.972 42.9244 140.741 43.2057 140.497 43.4807C140.253 43.7557 139.914 44.0435 139.477 44.3441V44.8045C139.907 45.1627 140.215 45.54 140.401 45.9301C140.587 46.3202 140.677 46.6847 140.677 47.0236V47.5928H138.855V41.3448H138.483C138.041 41.6709 137.694 41.9843 137.444 42.2785C137.194 42.5726 136.957 42.854 136.745 43.1354C136.527 43.4104 136.296 43.6918 136.052 43.9668C135.802 44.2418 135.469 44.5295 135.032 44.8301V45.2906C135.462 45.6487 135.77 46.026 135.956 46.4161C136.142 46.8062 136.232 47.1707 136.232 47.5097V47.5992H132.736C132.845 47.2539 132.916 46.9021 132.916 46.5248C132.916 46.0196 132.819 45.5464 132.621 45.0923C132.428 44.6383 132.159 44.2481 131.825 43.9156C131.492 43.5831 131.094 43.3209 130.645 43.1226C130.19 42.9308 129.715 42.8284 129.208 42.8284H125.026V44.165C125.097 44.165 125.167 44.1906 125.225 44.2354C125.289 44.2801 125.341 44.3377 125.379 44.3952C125.418 44.4592 125.45 44.5167 125.469 44.5807C125.488 44.6446 125.501 44.6894 125.501 44.7214V46.5184C125.501 46.8957 125.571 47.2538 125.68 47.5928H124.038H122.621V46.2946C122.621 45.3673 122.275 44.5935 121.588 43.9796C120.934 43.3976 120.164 43.1034 119.279 43.1034C118.394 43.1034 117.605 43.4168 116.983 44.0499C116.303 44.7342 115.963 45.6423 115.963 46.7614C115.963 47.7591 116.181 48.5457 116.611 49.1084C117.156 49.8247 118.041 50.1828 119.273 50.1828H120.222C120.222 51.4171 119.722 52.5682 118.721 53.6426C117.836 54.589 116.823 55.2413 115.668 55.6123V55.8489H116.855C118.74 55.8489 120.203 55.2733 121.235 54.1286C122.159 53.1054 122.621 51.8072 122.621 50.202H153.678V32.4811H153.306L153.313 32.4556ZM119.286 47.5864C118.657 47.5864 118.336 47.273 118.336 46.6399C118.336 46.0068 118.651 45.6934 119.286 45.6934C119.921 45.6934 120.235 46.0068 120.235 46.6399C120.235 47.273 119.921 47.5864 119.286 47.5864ZM128.984 47.5672C128.342 47.5672 128.022 47.2539 128.022 46.6335C128.022 46.0132 128.342 45.6998 128.984 45.6998C129.625 45.6998 129.92 46.0132 129.92 46.6335C129.92 47.2539 129.606 47.5672 128.984 47.5672Z" fill="white"/>
<path d="M45.3809 7.43164C45.9325 7.43164 46.4713 7.4828 47.0101 7.51478V23.9822C33.6686 26.5274 23.5662 38.4415 23.5662 52.7794C23.5662 53.8282 23.6368 54.8578 23.7394 55.8746C23.6881 55.8618 23.6368 55.8554 23.5662 55.8362C19.2431 50.7073 16.6133 44.05 16.6133 36.7532C16.6133 20.5608 29.4929 7.43164 45.3873 7.43164H45.3809Z" fill="white"/>
<path d="M26.3058 55.2927C26.3058 55.1903 26.293 55.088 26.293 54.9793C26.293 41.6391 35.0483 30.3965 47.0172 26.8408V30.3006C47.0172 47.286 32.194 53.4956 26.3122 55.2863L26.3058 55.2927Z" fill="white"/>
<path d="M23.5077 6.23584H35.964C31.2303 7.75148 26.9841 10.3863 23.5077 13.8268C20.0248 10.3927 15.785 7.75148 11.0449 6.23584H23.5012H23.5077Z" fill="white"/>
<path d="M21.712 15.7709C17.9661 20.1387 15.3812 25.5298 14.4062 31.49C10.4808 27.7169 5.5226 25.0374 0 23.9822V7.51478C0.545205 7.4828 1.07758 7.43164 1.6292 7.43164C9.44808 7.43164 16.5229 10.6164 21.712 15.7709Z" fill="white"/>
<path d="M13.9701 36.1584C13.9701 36.3567 13.938 36.5485 13.938 36.7468C13.938 43.257 15.92 49.5882 19.5504 54.9153C13.0977 52.7154 0 46.2755 0 30.3069V26.8472C5.52902 28.4907 10.3589 31.7842 13.9701 36.1648V36.1584Z" fill="white"/>
</svg>
