<svg width="18" height="15" viewBox="0 0 18 15" fill="none" xmlns="http://www.w3.org/2000/svg">
<g clip-path="url(#clip0_1687_235235)">
<path d="M18.0002 1.77551C17.3383 2.07653 16.6267 2.28061 15.8802 2.37245C16.6416 1.90306 17.2288 1.16327 17.5025 0.27551C16.7909 0.709184 15.9996 1.02551 15.1586 1.19388C14.4868 0.459184 13.5263 0 12.4613 0C10.421 0 8.76878 1.69388 8.76878 3.78571C8.76878 4.08163 8.80362 4.37245 8.86333 4.64796C5.79283 4.4898 3.07069 2.98469 1.24929 0.688776C0.930793 1.25 0.746662 1.89796 0.746662 2.59184C0.746662 3.90306 1.39858 5.06633 2.38891 5.7449C1.78177 5.72449 1.21445 5.55612 0.716803 5.27041C0.716803 5.28571 0.716803 5.30102 0.716803 5.31633C0.716803 7.15306 1.99079 8.67857 3.67782 9.03061C3.36928 9.11735 3.04083 9.16327 2.7074 9.16327C2.46853 9.16327 2.23961 9.13776 2.01069 9.09694C2.47848 10.602 3.84205 11.6939 5.45941 11.7245C4.19538 12.7398 2.6029 13.3469 0.871075 13.3469C0.572485 13.3469 0.278871 13.3316 -0.00976562 13.2959C1.62253 14.3724 3.56336 15 5.65349 15C12.4464 15 16.1639 9.22959 16.1639 4.22449C16.1639 4.06122 16.1639 3.89796 16.1539 3.73469C16.8755 3.19898 17.5025 2.53571 17.9952 1.77551H18.0002Z" fill="white"/>
</g>
<defs>
<clipPath id="clip0_1687_235235">
<rect width="18" height="15" fill="white"/>
</clipPath>
</defs>
</svg>
