<svg width="20" height="20" viewBox="0 0 20 20" fill="none" xmlns="http://www.w3.org/2000/svg">
<path d="M14.3034 4.93968L14.3122 4.93952M5.21782 1.15055L13.8051 1.00065C16.1765 0.959262 18.1331 2.88895 18.1753 5.31073L18.3284 14.0808C18.3707 16.5025 16.4826 18.4993 14.1113 18.5407L5.52398 18.6906C3.15266 18.732 1.19605 16.8023 1.15378 14.3805L1.0007 5.61051C0.958424 3.18873 2.84649 1.19194 5.21782 1.15055ZM13.0899 9.2332C13.2086 9.96123 13.0995 10.7088 12.7782 11.3695C12.4569 12.0303 11.9396 12.5706 11.3001 12.9136C10.6605 13.2566 9.93117 13.3848 9.21581 13.2801C8.50045 13.1753 7.83549 12.8428 7.3155 12.33C6.79551 11.8172 6.44698 11.1501 6.31949 10.4236C6.19199 9.6971 6.29201 8.94822 6.60533 8.28346C6.91866 7.61871 7.42932 7.07193 8.06469 6.7209C8.70005 6.36986 9.42777 6.23245 10.1443 6.32821C10.8753 6.42589 11.5562 6.76103 12.0866 7.28414C12.617 7.80725 12.9688 8.49058 13.0899 9.2332Z" stroke="white" stroke-width="2" stroke-linecap="round" stroke-linejoin="round"/>
</svg>
