<svg width="81" height="125" viewBox="0 0 81 125" fill="none" xmlns="http://www.w3.org/2000/svg">
<path fill-rule="evenodd" clip-rule="evenodd" d="M40.9264 64.9944C40.9264 64.9944 42.9826 85.6219 37.8559 101.142C37.8559 101.142 40.1588 86.3457 36.682 73.0657L40.9264 64.9944Z" fill="white"/>
<path d="M37.755 51.7094C33.5867 74.4594 15.7355 93.6194 10.6313 99.2319C20.9943 90.7106 38.8255 72.7869 42.5104 47.9981C44.4294 35.0619 44.245 25.2481 41.6356 16.3006L36.5151 17.3044C39.6778 26.4644 40.3533 37.6106 37.755 51.7094Z" fill="white"/>
<path fill-rule="evenodd" clip-rule="evenodd" d="M19.3828 33.7644C28.5944 40.8644 24.8285 47.7431 22.7948 51.5806C20.4109 56.0469 20.0545 58.4906 20.9256 62.2556C21.3589 64.0892 21.3366 66.0015 20.8608 67.8244C20.2258 69.9757 19.2569 72.0132 17.9896 73.8619L18.052 73.8006C18.052 73.8006 25.0591 68.8944 24.0198 62.3556C23.4129 58.5369 24.8946 56.1594 27.2747 51.6969C29.3122 47.8632 31.4581 35.5269 19.4065 33.7607L19.3828 33.7644ZM0.653157 26.1306C0.518572 25.7057 0.322926 25.3832 0.160926 24.7481C-0.173043 23.4119 -0.0259971 22.6419 0.970926 22.4244C1.32483 22.3319 2.08748 22.1494 2.72551 22.0144C3.62773 21.8244 4.30688 22.0144 4.6097 23.2769C5.49197 26.9019 3.88817 25.7281 5.8384 28.6994L10.1102 35.2057C10.1102 35.2057 12.0293 33.5831 12.6349 31.3331C13.172 29.3156 14.2736 24.3381 21.6322 24.5319C21.6322 24.5319 18.346 26.9907 16.7348 32.4632C14.7197 39.2844 8.479 41.1944 8.479 41.1944C8.479 41.1944 3.81465 31.9757 2.93985 29.6819C2.06505 27.3906 1.04819 27.3906 0.636957 26.1319" fill="white"/>
<path fill-rule="evenodd" clip-rule="evenodd" d="M78.4023 9.91815C78.4023 9.91815 76.7823 7.7844 74.7062 8.20565L14.6852 21.2519C14.5939 21.132 14.4666 21.0446 14.3222 21.0028C14.1777 20.9609 14.0236 20.9668 13.8826 21.0194C12.8197 21.2444 3.62305 23.2694 2.97505 23.4256C2.32705 23.5794 2.88658 25.6056 3.40872 25.4931C3.93085 25.3806 13.434 23.2744 14.3126 23.0882C14.8035 22.9881 14.9381 22.7006 14.9581 22.4219L71.1397 10.3069C72.6749 9.95815 73.7117 10.2756 75.0127 11.8831C75.7081 12.8631 76.3212 13.8994 76.8446 14.9819C76.9036 15.1352 77.0182 15.2603 77.1655 15.3322C77.3128 15.4041 77.4817 15.4174 77.6384 15.3694L80.6017 14.3319C81.1874 14.1106 80.9344 13.6569 80.9344 13.6569C80.1658 12.3536 79.3159 11.1003 78.3898 9.9044M17.0853 12.3931C17.6523 11.7694 18.5968 11.6181 19.0293 11.4594C17.8404 10.2969 14.4808 9.67065 12.548 13.4506C11.7343 15.0306 9.11236 15.8794 7.73038 13.5556C7.52725 14.4844 8.35595 18.6331 12.6664 17.7456C15.7905 17.1031 15.2758 13.9419 17.084 12.3931H17.0853ZM30.8204 10.1706C31.6154 10.8481 31.1045 11.3331 30.8204 11.9206C29.2353 15.1244 34.3171 14.6781 34.3171 14.6781L33.3351 13.6781C33.036 13.3656 32.8503 13.1369 32.8616 12.8231C32.884 12.6144 32.9588 12.4144 33.0771 12.2419C33.4186 11.7294 33.6255 11.1381 33.6803 10.5219C33.7177 9.6544 33.2965 9.28315 32.7133 8.7994L32.6248 8.71815C33.734 8.31483 34.7069 7.60501 35.4311 6.67065C36.1574 5.73386 36.6064 4.61116 36.7271 3.43065L29.8646 2.4894C27.781 -0.0730994 25.3086 -0.698099 21.6026 0.804401C20.2119 1.4741 19.031 2.51344 18.1881 3.8094C17.343 5.10855 16.867 6.61418 16.8111 8.1644C17.5103 6.8459 18.4281 5.65641 19.5252 4.6469C21.878 2.5719 25.5242 0.979401 28.6246 4.7594C28.6246 4.7594 33.0859 5.1469 33.6915 5.2244C33.6915 5.2244 33.2504 6.3869 32.4952 6.7744C30.3568 7.8994 28.4751 6.7469 27.1205 6.96315C26.2087 7.08414 25.3349 7.40646 24.5622 7.9069C23.7896 8.4069 23.1341 9.0744 22.6456 9.86065C22.6456 9.86065 27.3897 7.53565 30.8166 10.1706" fill="white"/>
<path d="M42.9145 95.9206C42.7927 95.8698 42.6611 95.8472 42.5294 95.8544H42.2578V96.5094H42.5444C42.6472 96.5147 42.7502 96.5016 42.8484 96.4706C42.9066 96.4511 42.9566 96.4128 42.9907 96.3617C43.0247 96.3105 43.0409 96.2495 43.0366 96.1881C43.043 96.137 43.0353 96.085 43.0145 96.0379C42.9936 95.9908 42.9603 95.9502 42.9182 95.9206H42.9132H42.9145ZM42.5718 95.6306C42.7397 95.6227 42.9076 95.6447 43.0678 95.6956C43.1571 95.7326 43.2321 95.7974 43.2817 95.8805C43.3313 95.9636 43.3529 96.0605 43.3432 96.1569C43.3496 96.2269 43.337 96.2973 43.3068 96.3607C43.2765 96.4241 43.2296 96.4781 43.1712 96.5169C43.0898 96.5645 42.9994 96.5947 42.9058 96.6056C42.9685 96.611 43.0292 96.6301 43.0837 96.6617C43.1382 96.6932 43.1851 96.7364 43.221 96.7881C43.2834 96.8694 43.317 96.9681 43.3207 97.0706V97.3494C43.3158 97.3817 43.3158 97.4146 43.3207 97.4469V97.4694H43.0217C43.0195 97.4633 43.0195 97.4567 43.0217 97.4506V97.2144C43.0323 97.1355 43.0219 97.0551 42.9915 96.9815C42.961 96.908 42.9117 96.8438 42.8484 96.7956C42.7371 96.7488 42.6162 96.7291 42.4958 96.7381H42.2428V97.4581H41.9238V95.6306H42.5718ZM41.601 95.5369C41.3841 95.7337 41.2323 95.9923 41.1662 96.2781C41.1 96.5639 41.1226 96.8631 41.2309 97.1356C41.3383 97.407 41.5256 97.6391 41.7678 97.8011C42.01 97.963 42.2957 98.047 42.5868 98.0419C42.7801 98.0374 42.9705 97.9933 43.1462 97.9122C43.322 97.8312 43.4793 97.7149 43.6086 97.5706C43.743 97.4379 43.8491 97.2792 43.9205 97.104C43.9918 96.9289 44.0269 96.7411 44.0236 96.5519C44.0249 96.2687 43.9427 95.9913 43.7873 95.7549C43.6318 95.5184 43.4101 95.3334 43.15 95.2231C42.8902 95.114 42.6037 95.0856 42.3275 95.1415C42.0514 95.1975 41.7983 95.3352 41.601 95.5369ZM43.7731 97.7294C43.5424 97.9626 43.2476 98.1215 42.9264 98.1856C42.6051 98.2497 42.2722 98.2162 41.97 98.0893C41.6679 97.9624 41.4105 97.748 41.2306 97.4734C41.0508 97.1988 40.9567 96.8766 40.9605 96.5481C40.9606 96.2744 41.0277 96.0048 41.1559 95.7631C41.2841 95.5214 41.4695 95.3149 41.6958 95.1619C41.9218 95.0094 42.1821 94.9156 42.4533 94.8889C42.7244 94.8623 42.9979 94.9036 43.2492 95.0092C43.5005 95.1148 43.7217 95.2813 43.893 95.4939C44.0643 95.7064 44.1802 95.9583 44.2304 96.2269C44.2825 96.4958 44.268 96.7733 44.1883 97.0353C44.1085 97.2972 43.966 97.5355 43.7731 97.7294ZM57.963 43.3931V23.2456H60.6261V40.7056H75.4678V43.3931H57.963ZM60.6261 69.9206V63.5994H74.7388V61.1056H60.6261V55.1481H75.4802V52.4606H57.963V72.6081H75.5101V69.9206H60.6261ZM65.3777 101.823V84.3619H57.963V81.6744H75.4665V84.3619H68.0394V101.822H65.3764L65.3777 101.823ZM75.5101 47.4994H57.963V48.3506H75.5101V47.4994ZM75.484 76.7131H57.9356V77.5656H75.484V76.7131ZM76.9544 99.7706H76.2591V99.5181H77.9476V99.7706H77.2535V101.823H76.9544V99.7706ZM80.1271 100.812C80.1085 100.491 80.0898 100.103 80.0935 99.8156C80.0069 100.11 79.9108 100.402 79.8056 100.691L79.4031 101.807H79.1788L78.7962 100.711C78.6929 100.417 78.6043 100.118 78.5308 99.8156C78.5308 100.103 78.5084 100.491 78.4897 100.834L78.4274 101.822H78.147L78.2965 99.5369H78.6804L79.0642 100.653C79.1576 100.936 79.2386 101.187 79.291 101.428C79.3587 101.166 79.4394 100.907 79.5327 100.653L79.9402 99.5369H80.324L80.4661 101.842H80.1782L80.1284 100.812H80.1271ZM3.95349 118.024C3.50019 118.022 3.05097 118.11 2.63248 118.285C2.21399 118.46 1.83476 118.717 1.51726 119.042C1.19806 119.367 0.946603 119.753 0.777579 120.176C0.608554 120.6 0.525343 121.053 0.532801 121.509V121.529C0.520518 121.984 0.599698 122.437 0.765621 122.861C0.931544 123.285 1.18081 123.671 1.49857 123.996C1.81579 124.319 2.19518 124.574 2.61375 124.746C3.03231 124.918 3.48133 125.003 3.93356 124.996C4.38844 124.998 4.83916 124.909 5.25881 124.733C5.67845 124.556 6.05842 124.297 6.37602 123.971C6.69543 123.643 6.94639 123.255 7.11416 122.829C7.28193 122.403 7.36314 121.947 7.353 121.489C7.36528 121.034 7.2861 120.581 7.12018 120.158C6.95426 119.734 6.70499 119.348 6.38723 119.023C6.07007 118.7 5.69086 118.445 5.27254 118.273C4.85423 118.101 4.40549 118.016 3.95349 118.023V118.024ZM3.95349 124.124C3.61775 124.123 3.28587 124.052 2.97818 123.918C2.67048 123.783 2.39344 123.587 2.16402 123.341C1.93303 123.095 1.75411 122.804 1.63803 122.487C1.52195 122.17 1.47112 121.832 1.4886 121.494C1.47136 121.157 1.52244 120.82 1.63874 120.504C1.75505 120.187 1.93416 119.897 2.16526 119.652C2.39585 119.408 2.67361 119.214 2.98154 119.082C3.28946 118.95 3.62105 118.882 3.95599 118.883C4.29085 118.885 4.62188 118.955 4.9286 119.09C5.23532 119.224 5.51122 119.421 5.73923 119.667C5.96889 119.913 6.14611 120.204 6.26009 120.522C6.37406 120.839 6.42241 121.176 6.40219 121.513V121.533C6.41692 121.867 6.36461 122.2 6.24837 122.513C6.13213 122.826 5.95432 123.113 5.72552 123.356C5.49718 123.597 5.22243 123.79 4.91786 123.921C4.6133 124.053 4.28524 124.122 3.95349 124.123V124.124ZM8.71255 124.887H9.6372V122.029H13.1563V121.162H9.6372V119.016H13.575V118.137H8.71255V124.887ZM15.7284 124.887V122.029H19.2475V121.162H15.7284V119.016H19.6625V118.137H14.8025V124.887H15.7284ZM21.8807 118.137H20.9548V124.887H21.8807V118.137ZM28.7083 123.202C28.4537 123.49 28.1412 123.721 27.7915 123.88C27.4417 124.039 27.0624 124.122 26.6784 124.124C26.3469 124.115 26.0205 124.04 25.7187 123.902C25.4169 123.764 25.1457 123.567 24.9213 123.322C24.6957 123.077 24.5211 122.789 24.4077 122.475C24.2943 122.161 24.2444 121.828 24.2608 121.494C24.2439 121.163 24.2937 120.831 24.4071 120.519C24.5206 120.207 24.6954 119.921 24.9213 119.678C25.1468 119.437 25.4187 119.243 25.7207 119.11C26.0227 118.977 26.3485 118.907 26.6784 118.903C27.0501 118.903 27.4178 118.98 27.7581 119.13C28.0984 119.28 28.4038 119.499 28.6548 119.774L28.7245 119.841L29.3576 119.158L29.2878 119.093C28.9521 118.743 28.5473 118.467 28.0993 118.283C27.6512 118.099 27.1698 118.011 26.6858 118.024C26.2352 118.024 25.7891 118.115 25.3741 118.291C24.959 118.467 24.5834 118.725 24.2695 119.049C23.9539 119.375 23.7061 119.76 23.5405 120.182C23.3749 120.604 23.2948 121.056 23.305 121.509V121.529C23.29 121.981 23.3658 122.432 23.5278 122.854C23.6899 123.276 23.9349 123.661 24.2484 123.986C24.5613 124.309 24.9364 124.565 25.3508 124.739C25.7653 124.912 26.2105 125 26.6597 124.996C27.1663 125.007 27.6693 124.908 28.1335 124.704C28.5976 124.499 29.0116 124.196 29.3464 123.814L29.4149 123.744L28.7856 123.141L28.7083 123.203V123.202ZM31.4337 118.137H30.509V124.887H31.4337V118.137ZM35.5821 118.089L32.5365 124.887H33.4998L34.2674 123.156H37.6794L38.447 124.887H39.4489L36.3971 118.089H35.5821ZM37.3093 122.288H34.6425L35.9784 119.291L37.3093 122.288ZM41.4054 118.137H40.4795V124.887H45.0629V124.012H41.4054V118.137ZM49.9378 121.921H53.4806V121.049H49.9378V119.004H53.8981V118.137H49.0132V124.887H53.9442V124.019H49.9378V121.921ZM57.8983 123.628L55.6489 118.137H54.6246L57.4758 124.876L57.4982 124.934H58.2783L61.152 118.137H60.155L57.8983 123.628ZM63.1171 121.921H66.6637V121.049H63.1171V119.004H67.0824V118.137H62.1925V124.887H67.1285V124.019H63.1184V121.921H63.1171ZM73.1935 123.211L69.2432 118.136H68.4145V124.887H69.3205V119.693L73.373 124.887H74.0983V118.137H73.1923V123.211H73.1935ZM75.2796 118.137V119.016H77.4641V124.887H78.3975V119.016H80.5807V118.137H75.2796Z" fill="white"/>
</svg>
